<svg width="2500" height="2500" viewBox="0 0 2500 2500" fill="none" xmlns="http://www.w3.org/2000/svg">
<path d="M833.334 2500C1063.33 2500 1250 2313.33 1250 2083.33V1666.67H833.334C603.334 1666.67 416.667 1853.33 416.667 2083.33C416.667 2313.33 603.334 2500 833.334 2500Z" fill="#0ACF83"/>
<path d="M416.667 1250C416.667 1020 603.334 833.333 833.334 833.333H1250V1666.67H833.334C603.334 1666.67 416.667 1480 416.667 1250Z" fill="#A259FF"/>
<path d="M416.667 416.667C416.667 186.667 603.334 0 833.334 0H1250V833.333H833.334C603.334 833.333 416.667 646.667 416.667 416.667Z" fill="#F24E1E"/>
<path d="M1250 0H1666.67C1896.67 0 2083.33 186.667 2083.33 416.667C2083.33 646.667 1896.67 833.333 1666.67 833.333H1250V0Z" fill="#FF7262"/>
<path d="M2083.33 1250C2083.33 1480 1896.67 1666.67 1666.67 1666.67C1436.67 1666.67 1250 1480 1250 1250C1250 1020 1436.67 833.333 1666.67 833.333C1896.67 833.333 2083.33 1020 2083.33 1250Z" fill="#1ABCFE"/>
</svg>
