<svg width="123" height="123" viewBox="0 0 123 123" fill="none" xmlns="http://www.w3.org/2000/svg">
<path d="M120.21 55.8022L66.7164 2.31291C65.9836 1.57966 65.1135 0.997985 64.1559 0.601126C63.1982 0.204266 62.1717 0 61.1351 0C60.0984 0 59.0719 0.204266 58.1143 0.601126C57.1566 0.997985 56.2865 1.57966 55.5537 2.31291L44.4497 13.4222L58.5377 27.5102C60.194 26.9477 61.9747 26.8599 63.6783 27.2567C65.3819 27.6535 66.9404 28.5191 68.1777 29.7556C69.4219 31.001 70.2904 32.5715 70.6839 34.2873C71.0775 36.0032 70.9801 37.7951 70.4031 39.4582L83.9857 53.0369C85.6493 52.4591 87.442 52.3618 89.1583 52.7561C90.8746 53.1504 92.4451 54.0204 93.6897 55.2662C94.5615 56.1379 95.2531 57.1728 95.7249 58.3117C96.1968 59.4507 96.4396 60.6714 96.4396 61.9042C96.4396 63.1371 96.1968 64.3578 95.7249 65.4968C95.2531 66.6357 94.5615 67.6706 93.6897 68.5422C91.9272 70.303 89.5377 71.292 87.0464 71.292C84.5551 71.292 82.1656 70.303 80.4031 68.5422C79.0937 67.2308 78.2016 65.5612 77.8391 63.7438C77.4766 61.9264 77.6598 60.0424 78.3657 58.3289L65.6991 45.6662V78.9956C67.036 79.656 68.1964 80.6255 69.0841 81.8236C69.9717 83.0218 70.5612 84.4142 70.8036 85.8856C71.046 87.3569 70.9344 88.8648 70.478 90.2845C70.0216 91.7041 69.2335 92.9945 68.1791 94.0489C67.3074 94.9207 66.2725 95.6123 65.1336 96.0841C63.9946 96.556 62.7739 96.7988 61.5411 96.7988C60.3082 96.7988 59.0875 96.556 57.9485 96.0841C56.8096 95.6123 55.7747 94.9207 54.9031 94.0489C54.031 93.1772 53.3393 92.1423 52.8673 91.0032C52.3954 89.8641 52.1525 88.6432 52.1525 87.4103C52.1525 86.1773 52.3954 84.9564 52.8673 83.8173C53.3393 82.6782 54.031 81.6433 54.9031 80.7716C55.7815 79.8914 56.8256 79.194 57.9751 78.7196V45.0836C56.8303 44.612 55.7899 43.919 54.9138 43.0442C54.0377 42.1694 53.343 41.1301 52.8697 39.9861C52.3964 38.842 52.1539 37.6157 52.1559 36.3776C52.158 35.1395 52.4046 33.9141 52.8817 32.7716L38.9911 18.8782L2.30838 55.5516C0.830195 57.0327 0 59.0397 0 61.1322C0 63.2248 0.830195 65.2318 2.30838 66.7129L55.8044 120.209C57.2854 121.687 59.2922 122.517 61.3844 122.517C63.4766 122.517 65.4834 121.687 66.9644 120.209L120.21 66.9636C121.688 65.4825 122.518 63.4754 122.518 61.3829C122.518 59.2904 121.688 57.2833 120.21 55.8022Z" fill="#F03C2E"/>
</svg>
