<svg width="206" height="206" viewBox="0 0 206 206" fill="none" xmlns="http://www.w3.org/2000/svg">
<path d="M15.5 87.5622C15.1 87.5622 15 87.3622 15.2 87.0622L17.3 84.3622C17.5 84.0622 18 83.8622 18.4 83.8622H54.1C54.5 83.8622 54.6 84.1622 54.4 84.4622L52.7 87.0622C52.5 87.3622 52 87.6622 51.7 87.6622L15.5 87.5622Z" fill="#00ACD7"/>
<path d="M0.4 96.7623C0 96.7623 -0.1 96.5623 0.1 96.2623L2.2 93.5623C2.4 93.2623 2.9 93.0623 3.3 93.0623H48.9C49.3 93.0623 49.5 93.3623 49.4 93.6623L48.6 96.0623C48.5 96.4623 48.1 96.6623 47.7 96.6623L0.4 96.7623Z" fill="#00ACD7"/>
<path d="M24.6 105.962C24.2 105.962 24.1 105.662 24.3 105.362L25.7 102.862C25.9 102.562 26.3 102.262 26.7 102.262H46.7C47.1 102.262 47.3 102.562 47.3 102.962L47.1 105.362C47.1 105.762 46.7 106.062 46.4 106.062L24.6 105.962Z" fill="#00ACD7"/>
<path d="M128.4 85.7622C122.1 87.3622 117.8 88.5622 111.6 90.1622C110.1 90.5622 110 90.6622 108.7 89.1622C107.2 87.4622 106.1 86.3622 104 85.3622C97.7 82.2622 91.6 83.1622 85.9 86.8622C79.1 91.2622 75.6 97.7622 75.7 105.862C75.8 113.862 81.3 120.462 89.2 121.562C96 122.462 101.7 120.062 106.2 114.962C107.1 113.862 107.9 112.662 108.9 111.262C105.3 111.262 100.8 111.262 89.6 111.262C87.5 111.262 87 109.962 87.7 108.262C89 105.162 91.4 99.9622 92.8 97.3622C93.1 96.7622 93.8 95.7622 95.3 95.7622C100.4 95.7622 119.2 95.7622 131.7 95.7622C131.5 98.4622 131.5 101.162 131.1 103.862C130 111.062 127.3 117.662 122.9 123.462C115.7 132.962 106.3 138.862 94.4 140.462C84.6 141.762 75.5 139.862 67.5 133.862C60.1 128.262 55.9 120.862 54.8 111.662C53.5 100.762 56.7 90.9622 63.3 82.3622C70.4 73.0622 79.8 67.1622 91.3 65.0622C100.7 63.3622 109.7 64.4622 117.8 69.9622C123.1 73.4622 126.9 78.2622 129.4 84.0622C130 84.9622 129.6 85.4622 128.4 85.7622Z" fill="#00ACD7"/>
<path d="M161.5 141.062C152.4 140.862 144.1 138.262 137.1 132.262C131.2 127.162 127.5 120.662 126.3 112.962C124.5 101.662 127.6 91.6622 134.4 82.7622C141.7 73.1622 150.5 68.1622 162.4 66.0622C172.6 64.2622 182.2 65.2622 190.9 71.1622C198.8 76.5622 203.7 83.8622 205 93.4622C206.7 106.962 202.8 117.962 193.5 127.362C186.9 134.062 178.8 138.262 169.5 140.162C166.8 140.662 164.1 140.762 161.5 141.062ZM185.3 100.662C185.2 99.3622 185.2 98.3622 185 97.3622C183.2 87.4622 174.1 81.8623 164.6 84.0623C155.3 86.1623 149.3 92.0622 147.1 101.462C145.3 109.262 149.1 117.162 156.3 120.362C161.8 122.762 167.3 122.462 172.6 119.762C180.5 115.662 184.8 109.262 185.3 100.662Z" fill="#00ACD7"/>
</svg>
