<svg width="45" height="26" viewBox="0 0 45 26" fill="none" xmlns="http://www.w3.org/2000/svg">
<mask id="mask0_5_12" style="mask-type:luminance" maskUnits="userSpaceOnUse" x="0" y="0" width="45" height="26">
<path d="M44.8085 0H0V26H44.8085V0Z" fill="white"/>
</mask>
<g mask="url(#mask0_5_12)">
<path d="M0.252197 20.468V0.685855H13.4491V3.87224H3.86343V9.3422H12.2542V12.5286H3.86343V20.468H0.252197ZM25.7762 25.7786V17.6799L26.3338 18.3703C25.8382 19.1492 25.1478 19.7511 24.2627 20.1759C23.3776 20.5831 22.4128 20.7866 21.3684 20.7866C19.9699 20.7866 18.7219 20.4591 17.6244 19.8042C16.5269 19.1315 15.6595 18.2198 15.0222 17.0692C14.3849 15.9185 14.0663 14.644 14.0663 13.2455C14.0663 11.8294 14.3849 10.5548 15.0222 9.42186C15.6595 8.28892 16.5269 7.38611 17.6244 6.71343C18.7396 6.04075 19.9788 5.70441 21.3418 5.70441C22.4394 5.70441 23.413 5.92569 24.2627 6.36824C25.1301 6.79309 25.8116 7.39497 26.3073 8.17386L25.9621 8.8908V6.02305H29.2547V25.7786H25.7762ZM21.7401 17.6002C22.5367 17.6002 23.236 17.4144 23.8378 17.0426C24.4397 16.6709 24.9088 16.1575 25.2452 15.5025C25.5992 14.8476 25.7762 14.0952 25.7762 13.2455C25.7762 12.4135 25.5992 11.67 25.2452 11.0151C24.9088 10.3601 24.4397 9.84671 23.8378 9.47497C23.236 9.08552 22.5367 8.8908 21.7401 8.8908C20.9612 8.8908 20.262 9.08552 19.6424 9.47497C19.0229 9.84671 18.5361 10.3601 18.182 11.0151C17.8457 11.67 17.6775 12.4135 17.6775 13.2455C17.6775 14.0952 17.8457 14.8476 18.182 15.5025C18.5361 16.1575 19.0229 16.6709 19.6424 17.0426C20.262 17.4144 20.9612 17.6002 21.7401 17.6002ZM31.6943 20.468V0.446877H35.1727V8.86424L34.6948 8.35973C35.0311 7.49233 35.5799 6.83735 36.3411 6.39479C37.12 5.93454 38.0228 5.70441 39.0495 5.70441C40.1116 5.70441 41.0498 5.93454 41.8641 6.39479C42.6961 6.85505 43.3423 7.50118 43.8025 8.33318C44.2628 9.14748 44.4929 10.0945 44.4929 11.1744V20.468H41.0144V11.9975C41.0144 11.3602 40.8905 10.8115 40.6427 10.3512C40.3949 9.89097 40.0497 9.53692 39.6071 9.28909C39.1823 9.02356 38.6778 8.8908 38.0936 8.8908C37.5271 8.8908 37.0226 9.02356 36.5801 9.28909C36.1375 9.53692 35.7923 9.89097 35.5445 10.3512C35.2966 10.8115 35.1727 11.3602 35.1727 11.9975V20.468H31.6943Z" fill="#004CEE"/>
<path d="M29.2582 0.553207H25.7731V4.03831H29.2582V0.553207Z" fill="#004CEE"/>
</g>
</svg>
