<svg width="594" height="594" viewBox="0 0 594 594" fill="none" xmlns="http://www.w3.org/2000/svg">
<g clip-path="url(#clip0_5_5)">
<path d="M439.542 432.201C443.32 400.733 442.188 396.118 465.626 401.216L471.577 401.738C489.6 402.558 513.176 398.84 527.026 392.405C556.842 378.57 574.522 355.472 545.122 361.541C478.06 375.376 473.449 352.668 473.449 352.668C544.264 247.597 573.866 114.22 548.314 81.5716C478.621 -7.48044 357.984 34.6302 355.965 35.7236L355.322 35.8422C342.072 33.0929 327.242 31.4502 310.584 31.1809C280.236 30.6822 257.208 39.1369 239.74 52.3862C239.74 52.3862 24.5291 -36.2778 34.5411 163.89C36.6704 206.472 95.5771 486.097 165.834 401.637C191.513 370.753 216.329 344.64 216.329 344.64C228.652 352.826 243.405 357.002 258.878 355.502L260.074 354.482C259.7 358.317 259.865 362.068 260.553 366.508C242.457 386.73 247.774 390.281 211.589 397.729C174.98 405.274 196.488 418.708 210.526 422.218C227.55 426.476 266.933 432.506 293.55 395.253L292.49 399.504C299.59 405.184 299.11 440.329 300.117 465.44C301.125 490.552 302.806 513.985 307.925 527.801C313.044 541.614 319.084 577.201 366.64 567.009C406.385 558.492 436.773 546.234 439.542 432.201Z" fill="black" stroke="black" stroke-width="49.8604"/>
<path d="M545.129 361.538C478.06 375.373 473.449 352.665 473.449 352.665C544.264 247.588 573.866 114.208 548.32 81.5636C478.626 -7.48312 357.984 34.6302 355.97 35.7236L355.322 35.8396C342.072 33.0889 327.242 31.4502 310.576 31.1782C280.228 30.6809 257.208 39.1342 239.74 52.3809C239.74 52.3809 24.5251 -36.2791 34.5344 163.888C36.6638 206.472 95.5691 486.097 165.829 401.637C191.509 370.753 216.321 344.64 216.321 344.64C228.645 352.826 243.398 357.002 258.865 355.502L260.066 354.482C259.693 358.317 259.864 362.068 260.548 366.508C242.448 386.73 247.766 390.281 211.584 397.729C174.972 405.274 196.48 418.708 210.522 422.218C227.546 426.476 266.932 432.506 293.544 395.253L292.482 399.504C299.574 405.184 304.554 436.452 303.72 464.796C302.885 493.141 302.328 512.601 307.916 527.801C313.504 543.001 319.073 577.201 366.638 567.009C406.384 558.492 426.98 536.42 429.845 499.602C431.878 473.428 436.48 477.297 436.77 453.896L440.461 442.817C444.717 407.336 441.137 395.889 465.624 401.213L471.574 401.736C489.597 402.556 513.185 398.837 527.029 392.402C556.84 378.568 574.52 355.469 545.126 361.538H545.129Z" fill="#336791"/>
<path d="M296.424 381.877C294.577 447.898 296.888 514.379 303.348 530.537C309.812 546.694 323.645 578.121 371.215 567.93C410.956 559.41 425.416 542.922 431.691 506.529C436.312 479.753 445.221 405.39 446.364 390.154" stroke="white" stroke-width="16.6201" stroke-linecap="round" stroke-linejoin="round"/>
<path d="M239.408 50.9062C239.408 50.9062 24.0464 -37.1151 34.0584 163.052C36.1878 205.636 95.0971 485.27 165.356 400.806C191.03 369.918 214.25 345.693 214.25 345.693" stroke="white" stroke-width="16.6201" stroke-linecap="round" stroke-linejoin="round"/>
<path d="M355.734 34.8409C348.28 37.1782 475.532 -11.6778 547.85 80.7302C573.396 113.376 543.793 246.756 472.98 351.836" stroke="white" stroke-width="16.6201" stroke-linecap="round" stroke-linejoin="round"/>
<path d="M472.979 351.836C472.979 351.836 477.593 374.55 544.664 360.706C574.051 354.637 556.365 377.738 526.561 391.58C502.101 402.932 447.263 405.841 446.367 390.154C444.061 349.681 475.228 361.977 472.979 351.836ZM472.979 351.836C470.945 342.702 457.008 333.738 447.788 311.385C439.739 291.874 337.393 142.253 476.171 164.474C481.255 163.422 439.976 32.4715 310.1 30.3422C180.253 28.2129 184.513 190.025 184.513 190.025" stroke="white" stroke-width="16.6201" stroke-linecap="round" stroke-linejoin="bevel"/>
<path d="M260.075 365.677C241.972 385.898 247.296 389.449 211.111 396.899C174.499 404.446 196.009 417.877 210.048 421.386C227.072 425.646 266.457 431.677 293.069 394.414C301.173 383.069 293.021 364.966 281.889 360.351C276.511 358.123 269.319 355.332 260.075 365.677Z" stroke="white" stroke-width="16.6201" stroke-linecap="round" stroke-linejoin="round"/>
<path d="M258.889 365.324C257.065 353.434 262.796 339.286 268.937 322.734C278.167 297.9 299.461 273.061 282.427 194.282C269.729 135.577 184.565 182.065 184.512 190.025C184.46 197.982 188.364 230.372 183.089 268.089C176.207 317.306 214.407 358.932 258.395 354.673" stroke="white" stroke-width="16.6201" stroke-linecap="round" stroke-linejoin="round"/>
<path d="M238.625 188.832C238.241 191.55 243.602 198.805 250.593 199.774C257.572 200.748 263.545 195.078 263.924 192.362C264.302 189.644 258.948 186.649 251.954 185.675C244.972 184.701 238.996 186.12 238.626 188.832H238.625Z" fill="white" stroke="white" stroke-width="5.54"/>
<path d="M451.19 183.289C451.569 186.008 446.214 193.262 439.222 194.232C432.238 195.205 426.265 189.536 425.882 186.82C425.513 184.101 430.869 181.106 437.854 180.133C444.84 179.16 450.812 180.577 451.19 183.29V183.289Z" fill="white" stroke="white" stroke-width="2.77"/>
<path d="M476.17 164.474C477.321 185.8 471.577 200.325 470.853 223.026C469.781 256.024 486.585 293.792 461.265 331.606" stroke="white" stroke-width="16.6201" stroke-linecap="round" stroke-linejoin="round"/>
</g>
<defs>
<clipPath id="clip0_5_5">
<rect width="576" height="594" fill="white" transform="translate(9)"/>
</clipPath>
</defs>
</svg>
