<svg width="577" height="595" viewBox="0 0 577 595" fill="none" xmlns="http://www.w3.org/2000/svg">
<path d="M430.542 433.201C434.32 401.733 433.188 397.118 456.626 402.216L462.577 402.738C480.6 403.558 504.176 399.84 518.026 393.405C547.842 379.57 565.522 356.472 536.122 362.541C469.06 376.376 464.449 353.668 464.449 353.668C535.264 248.597 564.866 115.22 539.314 82.5716C469.621 -6.48044 348.984 35.6302 346.965 36.7236L346.322 36.8422C333.072 34.0929 318.242 32.4502 301.584 32.1809C271.236 31.6822 248.208 40.1369 230.74 53.3862C230.74 53.3862 15.5291 -35.2778 25.5411 164.89C27.6704 207.472 86.5771 487.097 156.834 402.637C182.513 371.753 207.329 345.64 207.329 345.64C219.652 353.826 234.405 358.002 249.878 356.502L251.074 355.482C250.7 359.317 250.865 363.068 251.553 367.508C233.457 387.73 238.774 391.281 202.589 398.729C165.98 406.274 187.488 419.708 201.526 423.218C218.55 427.476 257.933 433.506 284.55 396.253L283.49 400.504C290.59 406.184 290.11 441.329 291.117 466.44C292.125 491.552 293.806 514.985 298.925 528.801C304.044 542.614 310.084 578.201 357.64 568.009C397.385 559.492 427.773 547.234 430.542 433.201Z" fill="black" stroke="black" stroke-width="49.8604"/>
<path d="M536.129 362.538C469.06 376.373 464.449 353.665 464.449 353.665C535.264 248.588 564.866 115.208 539.32 82.5636C469.626 -6.48312 348.984 35.6302 346.97 36.7236L346.322 36.8396C333.072 34.0889 318.242 32.4502 301.576 32.1782C271.228 31.6809 248.208 40.1342 230.74 53.3809C230.74 53.3809 15.5251 -35.2791 25.5344 164.888C27.6638 207.472 86.5691 487.097 156.829 402.637C182.509 371.753 207.321 345.64 207.321 345.64C219.645 353.826 234.398 358.002 249.865 356.502L251.066 355.482C250.693 359.317 250.864 363.068 251.548 367.508C233.448 387.73 238.766 391.281 202.584 398.729C165.972 406.274 187.48 419.708 201.522 423.218C218.546 427.476 257.932 433.506 284.544 396.253L283.482 400.504C290.574 406.184 295.554 437.452 294.72 465.796C293.885 494.141 293.328 513.601 298.916 528.801C304.504 544.001 310.073 578.201 357.638 568.009C397.384 559.492 417.98 537.42 420.845 500.602C422.878 474.428 427.48 478.297 427.77 454.896L431.461 443.817C435.717 408.336 432.137 396.889 456.624 402.213L462.574 402.736C480.597 403.556 504.185 399.837 518.029 393.402C547.84 379.568 565.52 356.469 536.126 362.538H536.129Z" fill="#336791"/>
<path d="M287.424 382.877C285.577 448.898 287.888 515.379 294.348 531.537C300.812 547.694 314.645 579.121 362.215 568.93C401.956 560.41 416.416 543.922 422.691 507.529C427.312 480.753 436.221 406.39 437.364 391.154" stroke="white" stroke-width="16.6201" stroke-linecap="round" stroke-linejoin="round"/>
<path d="M230.408 51.9062C230.408 51.9062 15.0464 -36.1151 25.0584 164.052C27.1878 206.636 86.0971 486.27 156.356 401.806C182.03 370.918 205.25 346.693 205.25 346.693" stroke="white" stroke-width="16.6201" stroke-linecap="round" stroke-linejoin="round"/>
<path d="M346.734 35.8409C339.28 38.1782 466.532 -10.6778 538.85 81.7302C564.396 114.376 534.793 247.756 463.98 352.836" stroke="white" stroke-width="16.6201" stroke-linecap="round" stroke-linejoin="round"/>
<path d="M463.979 352.836C463.979 352.836 468.593 375.55 535.664 361.706C565.051 355.637 547.365 378.738 517.561 392.58C493.101 403.932 438.263 406.841 437.367 391.154C435.061 350.681 466.228 362.977 463.979 352.836ZM463.979 352.836C461.945 343.702 448.008 334.738 438.788 312.385C430.739 292.874 328.393 143.253 467.171 165.474C472.255 164.422 430.976 33.4715 301.1 31.3422C171.253 29.2129 175.513 191.025 175.513 191.025" stroke="white" stroke-width="16.6201" stroke-linecap="round" stroke-linejoin="bevel"/>
<path d="M251.075 366.677C232.972 386.898 238.296 390.449 202.111 397.899C165.499 405.446 187.009 418.877 201.048 422.386C218.072 426.646 257.457 432.677 284.069 395.414C292.173 384.069 284.021 365.966 272.889 361.351C267.511 359.123 260.319 356.332 251.075 366.677Z" stroke="white" stroke-width="16.6201" stroke-linecap="round" stroke-linejoin="round"/>
<path d="M249.889 366.324C248.065 354.434 253.796 340.286 259.937 323.734C269.167 298.9 290.461 274.061 273.427 195.282C260.729 136.577 175.565 183.065 175.512 191.025C175.46 198.982 179.364 231.372 174.089 269.089C167.207 318.306 205.407 359.932 249.395 355.673" stroke="white" stroke-width="16.6201" stroke-linecap="round" stroke-linejoin="round"/>
<path d="M229.625 189.832C229.241 192.55 234.602 199.805 241.593 200.774C248.572 201.748 254.545 196.078 254.924 193.362C255.302 190.644 249.948 187.649 242.954 186.675C235.972 185.701 229.996 187.12 229.626 189.832H229.625Z" fill="white" stroke="white" stroke-width="5.54"/>
<path d="M442.19 184.289C442.569 187.008 437.214 194.262 430.222 195.232C423.238 196.205 417.265 190.536 416.882 187.82C416.513 185.101 421.869 182.106 428.854 181.133C435.84 180.16 441.812 181.577 442.19 184.29V184.289Z" fill="white" stroke="white" stroke-width="2.77"/>
<path d="M467.17 165.474C468.321 186.8 462.577 201.325 461.853 224.026C460.781 257.024 477.585 294.792 452.265 332.606" stroke="white" stroke-width="16.6201" stroke-linecap="round" stroke-linejoin="round"/>
</svg>
