<svg width="24" height="24" viewBox="0 0 24 24" fill="none" xmlns="http://www.w3.org/2000/svg">
<path d="M12.125 14.2818C13.2572 14.2818 14.175 13.3639 14.175 12.2318C14.175 11.0996 13.2572 10.1818 12.125 10.1818C10.9928 10.1818 10.075 11.0996 10.075 12.2318C10.075 13.3639 10.9928 14.2818 12.125 14.2818Z" fill="#61DAFB"/>
<path d="M12.125 16.4317C18.2001 16.4317 23.125 14.5513 23.125 12.2317C23.125 9.91214 18.2001 8.03174 12.125 8.03174C6.04987 8.03174 1.125 9.91214 1.125 12.2317C1.125 14.5513 6.04987 16.4317 12.125 16.4317Z" stroke="#61DAFB"/>
<path d="M8.48769 14.3317C11.5253 19.593 15.6162 22.9178 17.625 21.758C19.6338 20.5982 18.7999 15.393 15.7623 10.1317C12.7247 4.87053 8.63383 1.54567 6.625 2.70547C4.61617 3.86527 5.45013 9.07053 8.48769 14.3317Z" stroke="#61DAFB"/>
<path d="M8.48769 10.1318C5.45013 15.393 4.61617 20.5982 6.625 21.758C8.63383 22.9178 12.7247 19.593 15.7623 14.3318C18.7999 9.07054 19.6338 3.86528 17.625 2.70548C15.6162 1.54568 11.5253 4.87054 8.48769 10.1318Z" stroke="#61DAFB"/>
</svg>
