<svg width="54" height="54" viewBox="0 0 54 54" fill="none" xmlns="http://www.w3.org/2000/svg">
<path fill-rule="evenodd" clip-rule="evenodd" d="M27 10.8C19.8 10.8 15.3 14.4 13.5 21.6C16.2 18 19.35 16.65 22.95 17.55C25.004 18.063 26.472 19.554 28.097 21.203C30.744 23.89 33.808 27 40.5 27C47.7 27 52.2 23.4 54 16.2C51.3 19.8 48.15 21.15 44.55 20.25C42.496 19.737 41.028 18.246 39.403 16.597C36.756 13.91 33.692 10.8 27 10.8ZM13.5 27C6.3 27 1.8 30.6 0 37.8C2.7 34.2 5.85 32.85 9.45 33.75C11.504 34.264 12.972 35.754 14.597 37.403C17.244 40.09 20.308 43.2001 27 43.2001C34.2 43.2001 38.7 39.6 40.5 32.4C37.8 36 34.65 37.35 31.05 36.45C28.996 35.937 27.528 34.446 25.903 32.797C23.256 30.11 20.192 27 13.5 27Z" fill="#38BDF8"/>
</svg>
