<svg width="2522" height="138" viewBox="0 0 2522 138" fill="none" xmlns="http://www.w3.org/2000/svg">
<rect width="2522" height="138" fill="white"/>
<mask id="path-2-outside-1_114_93" maskUnits="userSpaceOnUse" x="5" y="21" width="2462" height="99" fill="black">
<rect fill="white" x="5" y="21" width="2462" height="99"/>
<path d="M15.228 53.484C12.204 53.484 9.972 52.44 8.532 50.352C7.164 48.192 6.48 45.708 6.48 42.9C6.48 39.804 7.164 36.924 8.532 34.26C9.9 31.596 11.628 29.292 13.716 27.348C15.876 25.404 18.144 24 20.52 23.136L24.192 28.644C23.256 29.22 22.212 30.048 21.06 31.128C19.908 32.136 18.864 33.252 17.928 34.476C16.992 35.628 16.344 36.744 15.984 37.824C17.352 37.896 18.576 38.256 19.656 38.904C20.808 39.552 21.708 40.452 22.356 41.604C23.004 42.684 23.328 44.016 23.328 45.6C23.328 48.192 22.464 50.172 20.736 51.54C19.08 52.908 17.244 53.556 15.228 53.484ZM38.5843 105L67.8523 28.644H83.9443L113.104 105H98.5243L93.4483 90.852H58.2403L53.0563 105H38.5843ZM62.5603 78.648H89.0203L75.8443 42.252L62.5603 78.648ZM129.577 105L158.845 28.644H174.937L204.097 105H189.517L184.441 90.852H149.233L144.049 105H129.577ZM153.553 78.648H180.013L166.837 42.252L153.553 78.648ZM227.087 105V28.644H257.219C261.107 28.644 264.779 29.04 268.235 29.832C271.691 30.552 274.751 31.848 277.415 33.72C280.079 35.52 282.167 38.004 283.679 41.172C285.191 44.34 285.947 48.264 285.947 52.944C285.947 56.832 285.263 60.252 283.895 63.204C282.527 66.156 280.619 68.64 278.171 70.656C275.795 72.672 272.951 74.22 269.639 75.3L286.379 105H271.259L256.247 77.46H240.587V105H227.087ZM240.587 65.472H255.383C257.831 65.472 260.063 65.292 262.079 64.932C264.167 64.5 265.967 63.816 267.479 62.88C269.063 61.944 270.251 60.684 271.043 59.1C271.907 57.444 272.375 55.356 272.447 52.836C272.447 49.812 271.799 47.436 270.503 45.708C269.279 43.98 267.479 42.756 265.103 42.036C262.799 41.316 260.027 40.956 256.787 40.956H240.587V65.472ZM314.387 105V28.644H327.887V105H314.387ZM358.973 105V28.644H412.325V40.956H372.473V63.744H406.601V76.056H372.473V105H358.973ZM1203.48 105.864C1199.66 105.864 1196.17 105.432 1193 104.568C1189.83 103.632 1187.1 102.192 1184.79 100.248C1182.56 98.232 1180.8 95.64 1179.5 92.472C1178.2 89.232 1177.48 85.308 1177.34 80.7H1190.84C1190.98 83.004 1191.45 85.128 1192.24 87.072C1193.04 89.016 1194.3 90.564 1196.02 91.716C1197.82 92.868 1200.24 93.444 1203.26 93.444C1206.14 93.444 1208.37 92.832 1209.96 91.608C1211.54 90.384 1212.66 88.764 1213.3 86.748C1214.02 84.732 1214.38 82.464 1214.38 79.944V28.644H1227.78V78.216C1227.78 82.464 1227.31 86.316 1226.37 89.772C1225.51 93.156 1224.07 96.072 1222.05 98.52C1220.11 100.896 1217.59 102.732 1214.49 104.028C1211.47 105.252 1207.8 105.864 1203.48 105.864ZM1249.27 105L1278.54 28.644H1294.63L1323.79 105H1309.21L1304.14 90.852H1268.93L1263.74 105H1249.27ZM1273.25 78.648H1299.71L1286.53 42.252L1273.25 78.648ZM1346.78 105V28.644H1360.28V92.688H1400.03V105H1346.78ZM1418.18 105L1447.45 28.644H1463.54L1492.7 105H1478.12L1473.04 90.852H1437.83L1432.65 105H1418.18ZM1442.15 78.648H1468.61L1455.44 42.252L1442.15 78.648ZM1515.69 105V28.644H1529.19V92.688H1568.93V105H1515.69ZM1624.18 105.864C1616.91 105.864 1610.93 104.46 1606.25 101.652C1601.57 98.772 1598.11 94.74 1595.88 89.556C1593.65 84.372 1592.53 78.252 1592.53 71.196V28.644H1606.03V71.52C1606.03 75.408 1606.57 79.044 1607.65 82.428C1608.81 85.74 1610.71 88.404 1613.38 90.42C1616.11 92.436 1619.79 93.444 1624.39 93.444C1629.07 93.444 1632.67 92.436 1635.19 90.42C1637.79 88.332 1639.59 85.632 1640.59 82.32C1641.67 79.008 1642.21 75.408 1642.21 71.52V28.644H1655.82V71.196C1655.82 78.18 1654.71 84.264 1652.47 89.448C1650.24 94.632 1646.82 98.664 1642.21 101.544C1637.61 104.424 1631.59 105.864 1624.18 105.864ZM1686.39 105V28.644H1714.58C1722.57 28.644 1729.34 30.192 1734.88 33.288C1740.42 36.312 1744.64 40.704 1747.52 46.464C1750.47 52.152 1751.94 58.992 1751.94 66.984C1751.94 74.832 1750.5 81.6 1747.62 87.288C1744.82 92.976 1740.64 97.368 1735.1 100.464C1729.55 103.488 1722.75 105 1714.68 105H1686.39ZM1699.89 92.688H1714.36C1720.05 92.688 1724.62 91.608 1728.08 89.448C1731.6 87.216 1734.16 84.192 1735.74 80.376C1737.4 76.488 1738.23 71.988 1738.23 66.876C1738.23 61.908 1737.44 57.48 1735.85 53.592C1734.27 49.704 1731.71 46.644 1728.18 44.412C1724.73 42.108 1720.16 40.956 1714.47 40.956H1699.89V92.688ZM1778.86 105V28.644H1807.04C1815.04 28.644 1821.8 30.192 1827.35 33.288C1832.89 36.312 1837.1 40.704 1839.98 46.464C1842.94 52.152 1844.41 58.992 1844.41 66.984C1844.41 74.832 1842.97 81.6 1840.09 87.288C1837.28 92.976 1833.11 97.368 1827.56 100.464C1822.02 103.488 1815.22 105 1807.15 105H1778.86ZM1792.36 92.688H1806.83C1812.52 92.688 1817.09 91.608 1820.54 89.448C1824.07 87.216 1826.63 84.192 1828.21 80.376C1829.87 76.488 1830.7 71.988 1830.7 66.876C1830.7 61.908 1829.9 57.48 1828.32 53.592C1826.74 49.704 1824.18 46.644 1820.65 44.412C1817.2 42.108 1812.62 40.956 1806.94 40.956H1792.36V92.688ZM1871.32 105V28.644H1884.82V105H1871.32ZM1915.91 105V28.644H1930.38L1967.21 84.264V28.644H1980.71V105H1966.56L1929.41 49.704V105H1915.91Z"/>
<path d="M482.001 105V28.644H512.133C516.021 28.644 519.693 29.04 523.149 29.832C526.605 30.552 529.665 31.848 532.329 33.72C534.993 35.52 537.081 38.004 538.593 41.172C540.105 44.34 540.861 48.264 540.861 52.944C540.861 56.832 540.177 60.252 538.809 63.204C537.441 66.156 535.533 68.64 533.085 70.656C530.709 72.672 527.865 74.22 524.553 75.3L541.293 105H526.173L511.161 77.46H495.501V105H482.001ZM495.501 65.472H510.297C512.745 65.472 514.977 65.292 516.993 64.932C519.081 64.5 520.881 63.816 522.393 62.88C523.977 61.944 525.165 60.684 525.957 59.1C526.821 57.444 527.289 55.356 527.361 52.836C527.361 49.812 526.713 47.436 525.417 45.708C524.193 43.98 522.393 42.756 520.017 42.036C517.713 41.316 514.941 40.956 511.701 40.956H495.501V65.472ZM561.202 105L590.47 28.644H606.562L635.722 105H621.142L616.066 90.852H580.858L575.674 105H561.202ZM585.178 78.648H611.638L598.462 42.252L585.178 78.648ZM658.712 105V28.644H672.212V61.26H707.852V28.644H721.244V105H707.852V73.572H672.212V105H658.712ZM752.341 105V28.644H770.809L791.977 67.2L812.929 28.644H830.857V105H817.357V45.708L794.569 86.964H788.845L765.841 45.708V105H752.341ZM853.795 105L883.063 28.644H899.155L928.315 105H913.735L908.659 90.852H873.451L868.267 105H853.795ZM877.771 78.648H904.231L891.055 42.252L877.771 78.648ZM944.787 105L974.055 28.644H990.147L1019.31 105H1004.73L999.651 90.852H964.443L959.259 105H944.787ZM968.763 78.648H995.223L982.047 42.252L968.763 78.648ZM1042.3 105V28.644H1056.77L1093.6 84.264V28.644H1107.1V105H1092.95L1055.8 49.704V105H1042.3ZM2055.81 105V28.644H2109.17V40.956H2069.31V63.744H2103.44V76.056H2069.31V105H2055.81ZM2121.3 105L2150.57 28.644H2166.66L2195.82 105H2181.24L2176.17 90.852H2140.96L2135.78 105H2121.3ZM2145.28 78.648H2171.74L2158.56 42.252L2145.28 78.648ZM2275.35 117.96L2264.23 103.164C2262.07 104.028 2259.73 104.676 2257.21 105.108C2254.69 105.612 2252.13 105.864 2249.54 105.864C2241.62 105.864 2234.89 104.208 2229.34 100.896C2223.8 97.584 2219.55 92.976 2216.6 87.072C2213.72 81.168 2212.28 74.436 2212.28 66.876C2212.28 59.244 2213.72 52.476 2216.6 46.572C2219.55 40.668 2223.8 36.06 2229.34 32.748C2234.96 29.364 2241.69 27.672 2249.54 27.672C2257.46 27.672 2264.16 29.328 2269.63 32.64C2275.17 35.88 2279.38 40.452 2282.26 46.356C2285.22 52.188 2286.69 58.956 2286.69 66.66C2286.69 72.924 2285.68 78.504 2283.67 83.4C2281.72 88.224 2278.88 92.364 2275.14 95.82L2285.72 110.076L2275.35 117.96ZM2249.32 93.336C2254.87 93.336 2259.37 92.076 2262.82 89.556C2266.35 87.036 2268.91 83.76 2270.49 79.728C2272.15 75.624 2272.98 71.268 2272.98 66.66C2272.98 62.052 2272.15 57.732 2270.49 53.7C2268.84 49.668 2266.28 46.428 2262.82 43.98C2259.44 41.46 2255.01 40.2 2249.54 40.2C2244.14 40.2 2239.68 41.46 2236.15 43.98C2232.69 46.5 2230.14 49.812 2228.48 53.916C2226.82 57.948 2226 62.304 2226 66.984C2226 71.52 2226.79 75.804 2228.37 79.836C2230.03 83.868 2232.58 87.144 2236.04 89.664C2239.5 92.112 2243.92 93.336 2249.32 93.336ZM2313.5 105V28.644H2327V105H2313.5ZM2358.08 105V28.644H2371.58V105H2358.08ZM2402.67 105V28.644H2416.17V61.26H2451.81V28.644H2465.2V105H2451.81V73.572H2416.17V105H2402.67Z"/>
</mask>
<path d="M15.228 53.484L15.2637 52.4846L15.2459 52.484H15.228V53.484ZM8.532 50.352L7.68718 50.887L7.69766 50.9036L7.70879 50.9197L8.532 50.352ZM13.716 27.348L13.047 26.6047L13.0408 26.6103L13.0346 26.6161L13.716 27.348ZM20.52 23.136L21.3521 22.5813L20.9164 21.9278L20.1783 22.1962L20.52 23.136ZM24.192 28.644L24.7161 29.4957L25.5993 28.9522L25.0241 28.0893L24.192 28.644ZM21.06 31.128L21.7185 31.8806L21.7314 31.8693L21.7439 31.8575L21.06 31.128ZM17.928 34.476L18.7041 35.1066L18.7134 35.0951L18.7224 35.0834L17.928 34.476ZM15.984 37.824L15.0353 37.5078L14.62 38.7536L15.9314 38.8226L15.984 37.824ZM19.656 38.904L19.1415 39.7615L19.1535 39.7687L19.1657 39.7756L19.656 38.904ZM22.356 41.604L21.4844 42.0943L21.4913 42.1065L21.4985 42.1185L22.356 41.604ZM20.736 51.54L20.1153 50.7559L20.1071 50.7624L20.0991 50.769L20.736 51.54ZM15.228 52.484C12.4605 52.484 10.571 51.5471 9.35521 49.7843L7.70879 50.9197C9.37305 53.3329 11.9475 54.484 15.228 54.484V52.484ZM9.37682 49.8169C8.12004 47.8326 7.48 45.5378 7.48 42.9H5.48C5.48 45.8782 6.20796 48.5514 7.68718 50.887L9.37682 49.8169ZM7.48 42.9C7.48 39.9573 8.12864 37.2346 9.42157 34.7168L7.64243 33.8032C6.19936 36.6134 5.48 39.6507 5.48 42.9H7.48ZM9.42157 34.7168C10.7393 32.1507 12.3984 29.9411 14.3974 28.0799L13.0346 26.6161C10.8576 28.6429 9.0607 31.0413 7.64243 33.8032L9.42157 34.7168ZM14.385 28.0913C16.4636 26.2205 18.6231 24.8899 20.8617 24.0758L20.1783 22.1962C17.6649 23.1101 15.2884 24.5875 13.047 26.6047L14.385 28.0913ZM19.688 23.6907L23.36 29.1987L25.0241 28.0893L21.3521 22.5813L19.688 23.6907ZM23.6679 27.7923C22.6558 28.4152 21.5578 29.2906 20.3761 30.3985L21.7439 31.8575C22.8662 30.8054 23.8562 30.0248 24.7161 29.4957L23.6679 27.7923ZM20.4015 30.3754C19.1992 31.4275 18.1097 32.5921 17.1336 33.8685L18.7224 35.0834C19.6183 33.9119 20.6168 32.8445 21.7185 31.8806L20.4015 30.3754ZM17.1519 33.8454C16.1618 35.064 15.443 36.2846 15.0353 37.5078L16.9327 38.1402C17.245 37.2034 17.8222 36.192 18.7041 35.1066L17.1519 33.8454ZM15.9314 38.8226C17.1509 38.8868 18.2137 39.2048 19.1415 39.7615L20.1705 38.0465C18.9383 37.3072 17.5531 36.9052 16.0366 36.8254L15.9314 38.8226ZM19.1657 39.7756C20.1581 40.3338 20.9262 41.1019 21.4844 42.0943L23.2276 41.1137C22.4898 39.8021 21.4579 38.7702 20.1463 38.0324L19.1657 39.7756ZM21.4985 42.1185C22.0321 43.0077 22.328 44.151 22.328 45.6H24.328C24.328 43.881 23.976 42.3603 23.2135 41.0895L21.4985 42.1185ZM22.328 45.6C22.328 47.9467 21.5601 49.6121 20.1153 50.7559L21.3567 52.324C23.3679 50.7319 24.328 48.4373 24.328 45.6H22.328ZM20.0991 50.769C18.6185 51.9922 17.0184 52.5473 15.2637 52.4846L15.1923 54.4834C17.4696 54.5647 19.5415 53.8238 21.3729 52.311L20.0991 50.769ZM38.5843 105L37.6506 104.642L37.1301 106H38.5843V105ZM67.8523 28.644V27.644H67.1647L66.9186 28.2861L67.8523 28.644ZM83.9443 28.644L84.8785 28.2872L84.6329 27.644H83.9443V28.644ZM113.104 105V106H114.557L114.039 104.643L113.104 105ZM98.5243 105L97.5831 105.338L97.8207 106H98.5243V105ZM93.4483 90.852L94.3896 90.5143L94.152 89.852H93.4483V90.852ZM58.2403 90.852V89.852H57.5417L57.3014 90.508L58.2403 90.852ZM53.0563 105V106H53.7549L53.9953 105.344L53.0563 105ZM62.5603 78.648L61.621 78.3051L61.1308 79.648H62.5603V78.648ZM89.0203 78.648V79.648H90.4459L89.9606 78.3076L89.0203 78.648ZM75.8443 42.252L76.7846 41.9116L75.8482 39.3249L74.905 41.9091L75.8443 42.252ZM39.5181 105.358L68.7861 29.0019L66.9186 28.2861L37.6506 104.642L39.5181 105.358ZM67.8523 29.644H83.9443V27.644H67.8523V29.644ZM83.0102 29.0008L112.17 105.357L114.039 104.643L84.8785 28.2872L83.0102 29.0008ZM113.104 104H98.5243V106H113.104V104ZM99.4656 104.662L94.3896 90.5143L92.5071 91.1897L97.5831 105.338L99.4656 104.662ZM93.4483 89.852H58.2403V91.852H93.4483V89.852ZM57.3014 90.508L52.1174 104.656L53.9953 105.344L59.1793 91.196L57.3014 90.508ZM53.0563 104H38.5843V106H53.0563V104ZM62.5603 79.648H89.0203V77.648H62.5603V79.648ZM89.9606 78.3076L76.7846 41.9116L74.9041 42.5924L88.0801 78.9884L89.9606 78.3076ZM74.905 41.9091L61.621 78.3051L63.4997 78.9909L76.7837 42.5949L74.905 41.9091ZM129.577 105L128.643 104.642L128.122 106H129.577V105ZM158.845 28.644V27.644H158.157L157.911 28.2861L158.845 28.644ZM174.937 28.644L175.871 28.2872L175.625 27.644H174.937V28.644ZM204.097 105V106H205.549L205.031 104.643L204.097 105ZM189.517 105L188.575 105.338L188.813 106H189.517V105ZM184.441 90.852L185.382 90.5143L185.144 89.852H184.441V90.852ZM149.233 90.852V89.852H148.534L148.294 90.508L149.233 90.852ZM144.049 105V106H144.747L144.987 105.344L144.049 105ZM153.553 78.648L152.613 78.3051L152.123 79.648H153.553V78.648ZM180.013 78.648V79.648H181.438L180.953 78.3076L180.013 78.648ZM166.837 42.252L167.777 41.9116L166.84 39.3249L165.897 41.9091L166.837 42.252ZM130.51 105.358L159.778 29.0019L157.911 28.2861L128.643 104.642L130.51 105.358ZM158.845 29.644H174.937V27.644H158.845V29.644ZM174.002 29.0008L203.162 105.357L205.031 104.643L175.871 28.2872L174.002 29.0008ZM204.097 104H189.517V106H204.097V104ZM190.458 104.662L185.382 90.5143L183.499 91.1897L188.575 105.338L190.458 104.662ZM184.441 89.852H149.233V91.852H184.441V89.852ZM148.294 90.508L143.11 104.656L144.987 105.344L150.171 91.196L148.294 90.508ZM144.049 104H129.577V106H144.049V104ZM153.553 79.648H180.013V77.648H153.553V79.648ZM180.953 78.3076L167.777 41.9116L165.896 42.5924L179.072 78.9884L180.953 78.3076ZM165.897 41.9091L152.613 78.3051L154.492 78.9909L167.776 42.5949L165.897 41.9091ZM227.087 105H226.087V106H227.087V105ZM227.087 28.644V27.644H226.087V28.644H227.087ZM268.235 29.832L268.011 30.8067L268.021 30.8089L268.031 30.811L268.235 29.832ZM277.415 33.72L276.84 34.5382L276.847 34.5435L276.855 34.5486L277.415 33.72ZM283.679 41.172L284.581 40.7413L284.581 40.7413L283.679 41.172ZM283.895 63.204L284.802 63.6245L283.895 63.204ZM278.171 70.656L277.535 69.8841L277.529 69.8887L277.524 69.8935L278.171 70.656ZM269.639 75.3L269.329 74.3493L268.168 74.7277L268.768 75.791L269.639 75.3ZM286.379 105V106H288.09L287.25 104.509L286.379 105ZM271.259 105L270.381 105.479L270.665 106H271.259V105ZM256.247 77.46L257.125 76.9814L256.841 76.46H256.247V77.46ZM240.587 77.46V76.46H239.587V77.46H240.587ZM240.587 105V106H241.587V105H240.587ZM240.587 65.472H239.587V66.472H240.587V65.472ZM262.079 64.932L262.254 65.9164L262.268 65.914L262.281 65.9113L262.079 64.932ZM267.479 62.88L266.97 62.0191L266.961 62.0243L266.952 62.0297L267.479 62.88ZM271.043 59.1L270.156 58.6374L270.152 58.6451L270.148 58.6528L271.043 59.1ZM272.447 52.836L273.446 52.8646L273.447 52.8503V52.836H272.447ZM270.503 45.708L269.687 46.286L269.695 46.2971L269.703 46.308L270.503 45.708ZM265.103 42.036L264.804 42.9905L264.813 42.993L265.103 42.036ZM240.587 40.956V39.956H239.587V40.956H240.587ZM228.087 105V28.644H226.087V105H228.087ZM227.087 29.644H257.219V27.644H227.087V29.644ZM257.219 29.644C261.039 29.644 264.635 30.033 268.011 30.8067L268.458 28.8573C264.922 28.0469 261.175 27.644 257.219 27.644V29.644ZM268.031 30.811C271.365 31.5056 274.296 32.7509 276.84 34.5382L277.99 32.9018C275.205 30.9451 272.017 29.5984 268.439 28.853L268.031 30.811ZM276.855 34.5486C279.358 36.2398 281.334 38.5803 282.776 41.6027L284.581 40.7413C283 37.4277 280.8 34.8002 277.975 32.8914L276.855 34.5486ZM282.776 41.6027C284.206 44.5992 284.947 48.3657 284.947 52.944H286.947C286.947 48.1623 286.175 44.0808 284.581 40.7413L282.776 41.6027ZM284.947 52.944C284.947 56.7147 284.284 59.9865 282.987 62.7835L284.802 63.6245C286.242 60.5175 286.947 56.9493 286.947 52.944H284.947ZM282.987 62.7835C281.681 65.6031 279.864 67.9659 277.535 69.8841L278.806 71.4279C281.373 69.3141 283.373 66.7089 284.802 63.6245L282.987 62.7835ZM277.524 69.8935C275.258 71.8161 272.532 73.3048 269.329 74.3493L269.949 76.2507C273.37 75.1352 276.332 73.5279 278.818 71.4185L277.524 69.8935ZM268.768 75.791L285.508 105.491L287.25 104.509L270.51 74.809L268.768 75.791ZM286.379 104H271.259V106H286.379V104ZM272.137 104.521L257.125 76.9814L255.369 77.9386L270.381 105.479L272.137 104.521ZM256.247 76.46H240.587V78.46H256.247V76.46ZM239.587 77.46V105H241.587V77.46H239.587ZM240.587 104H227.087V106H240.587V104ZM240.587 66.472H255.383V64.472H240.587V66.472ZM255.383 66.472C257.879 66.472 260.171 66.2886 262.254 65.9164L261.903 63.9476C259.955 64.2954 257.783 64.472 255.383 64.472V66.472ZM262.281 65.9113C264.462 65.4601 266.376 64.7388 268.005 63.7303L266.952 62.0297C265.557 62.8932 263.872 63.5399 261.876 63.9527L262.281 65.9113ZM267.987 63.7409C269.73 62.711 271.056 61.3103 271.937 59.5472L270.148 58.6528C269.446 60.0577 268.395 61.177 266.97 62.0191L267.987 63.7409ZM271.929 59.5626C272.883 57.7339 273.371 55.4856 273.446 52.8646L271.447 52.8074C271.378 55.2264 270.93 57.1541 270.156 58.6374L271.929 59.5626ZM273.447 52.836C273.447 49.6801 272.771 47.0663 271.303 45.108L269.703 46.308C270.826 47.8057 271.447 49.9439 271.447 52.836H273.447ZM271.319 45.13C269.945 43.1907 267.943 41.8518 265.393 41.079L264.813 42.993C267.014 43.6602 268.612 44.7693 269.687 46.286L271.319 45.13ZM265.401 41.0815C262.974 40.323 260.096 39.956 256.787 39.956V41.956C259.958 41.956 262.624 42.309 264.804 42.9905L265.401 41.0815ZM256.787 39.956H240.587V41.956H256.787V39.956ZM239.587 40.956V65.472H241.587V40.956H239.587ZM314.387 105H313.387V106H314.387V105ZM314.387 28.644V27.644H313.387V28.644H314.387ZM327.887 28.644H328.887V27.644H327.887V28.644ZM327.887 105V106H328.887V105H327.887ZM315.387 105V28.644H313.387V105H315.387ZM314.387 29.644H327.887V27.644H314.387V29.644ZM326.887 28.644V105H328.887V28.644H326.887ZM327.887 104H314.387V106H327.887V104ZM358.973 105H357.973V106H358.973V105ZM358.973 28.644V27.644H357.973V28.644H358.973ZM412.325 28.644H413.325V27.644H412.325V28.644ZM412.325 40.956V41.956H413.325V40.956H412.325ZM372.473 40.956V39.956H371.473V40.956H372.473ZM372.473 63.744H371.473V64.744H372.473V63.744ZM406.601 63.744H407.601V62.744H406.601V63.744ZM406.601 76.056V77.056H407.601V76.056H406.601ZM372.473 76.056V75.056H371.473V76.056H372.473ZM372.473 105V106H373.473V105H372.473ZM359.973 105V28.644H357.973V105H359.973ZM358.973 29.644H412.325V27.644H358.973V29.644ZM411.325 28.644V40.956H413.325V28.644H411.325ZM412.325 39.956H372.473V41.956H412.325V39.956ZM371.473 40.956V63.744H373.473V40.956H371.473ZM372.473 64.744H406.601V62.744H372.473V64.744ZM405.601 63.744V76.056H407.601V63.744H405.601ZM406.601 75.056H372.473V77.056H406.601V75.056ZM371.473 76.056V105H373.473V76.056H371.473ZM372.473 104H358.973V106H372.473V104ZM482.001 105H481.001V106H482.001V105ZM482.001 28.644V27.644H481.001V28.644H482.001ZM523.149 29.832L522.925 30.8067L522.935 30.8089L522.945 30.811L523.149 29.832ZM532.329 33.72L531.754 34.5382L531.761 34.5435L531.769 34.5486L532.329 33.72ZM538.593 41.172L539.495 40.7413L539.495 40.7413L538.593 41.172ZM538.809 63.204L539.716 63.6245L538.809 63.204ZM533.085 70.656L532.449 69.8841L532.443 69.8887L532.438 69.8935L533.085 70.656ZM524.553 75.3L524.243 74.3493L523.082 74.7277L523.682 75.791L524.553 75.3ZM541.293 105V106H543.004L542.164 104.509L541.293 105ZM526.173 105L525.295 105.479L525.579 106H526.173V105ZM511.161 77.46L512.039 76.9814L511.755 76.46H511.161V77.46ZM495.501 77.46V76.46H494.501V77.46H495.501ZM495.501 105V106H496.501V105H495.501ZM495.501 65.472H494.501V66.472H495.501V65.472ZM516.993 64.932L517.169 65.9164L517.182 65.914L517.195 65.9113L516.993 64.932ZM522.393 62.88L521.884 62.0191L521.875 62.0243L521.866 62.0297L522.393 62.88ZM525.957 59.1L525.07 58.6374L525.066 58.6451L525.062 58.6528L525.957 59.1ZM527.361 52.836L528.36 52.8646L528.361 52.8503V52.836H527.361ZM525.417 45.708L524.601 46.286L524.609 46.2971L524.617 46.308L525.417 45.708ZM520.017 42.036L519.718 42.9905L519.727 42.993L520.017 42.036ZM495.501 40.956V39.956H494.501V40.956H495.501ZM483.001 105V28.644H481.001V105H483.001ZM482.001 29.644H512.133V27.644H482.001V29.644ZM512.133 29.644C515.953 29.644 519.549 30.033 522.925 30.8067L523.372 28.8573C519.836 28.0469 516.089 27.644 512.133 27.644V29.644ZM522.945 30.811C526.279 31.5056 529.21 32.7509 531.754 34.5382L532.904 32.9018C530.119 30.9451 526.931 29.5984 523.353 28.853L522.945 30.811ZM531.769 34.5486C534.272 36.2398 536.248 38.5803 537.69 41.6027L539.495 40.7413C537.914 37.4277 535.714 34.8002 532.889 32.8914L531.769 34.5486ZM537.69 41.6027C539.12 44.5992 539.861 48.3657 539.861 52.944H541.861C541.861 48.1623 541.089 44.0808 539.495 40.7413L537.69 41.6027ZM539.861 52.944C539.861 56.7147 539.198 59.9865 537.901 62.7835L539.716 63.6245C541.156 60.5175 541.861 56.9493 541.861 52.944H539.861ZM537.901 62.7835C536.595 65.6031 534.778 67.9659 532.449 69.8841L533.72 71.4279C536.287 69.3141 538.287 66.7089 539.716 63.6245L537.901 62.7835ZM532.438 69.8935C530.172 71.8161 527.446 73.3048 524.243 74.3493L524.863 76.2507C528.284 75.1352 531.246 73.5279 533.732 71.4185L532.438 69.8935ZM523.682 75.791L540.422 105.491L542.164 104.509L525.424 74.809L523.682 75.791ZM541.293 104H526.173V106H541.293V104ZM527.051 104.521L512.039 76.9814L510.283 77.9386L525.295 105.479L527.051 104.521ZM511.161 76.46H495.501V78.46H511.161V76.46ZM494.501 77.46V105H496.501V77.46H494.501ZM495.501 104H482.001V106H495.501V104ZM495.501 66.472H510.297V64.472H495.501V66.472ZM510.297 66.472C512.793 66.472 515.085 66.2886 517.169 65.9164L516.817 63.9476C514.869 64.2954 512.697 64.472 510.297 64.472V66.472ZM517.195 65.9113C519.376 65.4601 521.29 64.7388 522.919 63.7303L521.866 62.0297C520.472 62.8932 518.786 63.5399 516.79 63.9527L517.195 65.9113ZM522.901 63.7409C524.644 62.711 525.97 61.3103 526.851 59.5472L525.062 58.6528C524.36 60.0577 523.309 61.177 521.884 62.0191L522.901 63.7409ZM526.843 59.5626C527.797 57.7339 528.285 55.4856 528.36 52.8646L526.361 52.8074C526.292 55.2264 525.844 57.1541 525.07 58.6374L526.843 59.5626ZM528.361 52.836C528.361 49.6801 527.685 47.0663 526.217 45.108L524.617 46.308C525.74 47.8057 526.361 49.9439 526.361 52.836H528.361ZM526.233 45.13C524.859 43.1907 522.857 41.8518 520.307 41.079L519.727 42.993C521.928 43.6602 523.526 44.7693 524.601 46.286L526.233 45.13ZM520.315 41.0815C517.888 40.323 515.01 39.956 511.701 39.956V41.956C514.872 41.956 517.538 42.309 519.718 42.9905L520.315 41.0815ZM511.701 39.956H495.501V41.956H511.701V39.956ZM494.501 40.956V65.472H496.501V40.956H494.501ZM561.202 105L560.268 104.642L559.747 106H561.202V105ZM590.47 28.644V27.644H589.782L589.536 28.2861L590.47 28.644ZM606.562 28.644L607.496 28.2872L607.25 27.644H606.562V28.644ZM635.722 105V106H637.174L636.656 104.643L635.722 105ZM621.142 105L620.2 105.338L620.438 106H621.142V105ZM616.066 90.852L617.007 90.5143L616.769 89.852H616.066V90.852ZM580.858 90.852V89.852H580.159L579.919 90.508L580.858 90.852ZM575.674 105V106H576.372L576.612 105.344L575.674 105ZM585.178 78.648L584.238 78.3051L583.748 79.648H585.178V78.648ZM611.638 78.648V79.648H613.063L612.578 78.3076L611.638 78.648ZM598.462 42.252L599.402 41.9116L598.465 39.3249L597.522 41.9091L598.462 42.252ZM562.135 105.358L591.403 29.0019L589.536 28.2861L560.268 104.642L562.135 105.358ZM590.47 29.644H606.562V27.644H590.47V29.644ZM605.627 29.0008L634.787 105.357L636.656 104.643L607.496 28.2872L605.627 29.0008ZM635.722 104H621.142V106H635.722V104ZM622.083 104.662L617.007 90.5143L615.124 91.1897L620.2 105.338L622.083 104.662ZM616.066 89.852H580.858V91.852H616.066V89.852ZM579.919 90.508L574.735 104.656L576.612 105.344L581.796 91.196L579.919 90.508ZM575.674 104H561.202V106H575.674V104ZM585.178 79.648H611.638V77.648H585.178V79.648ZM612.578 78.3076L599.402 41.9116L597.521 42.5924L610.697 78.9884L612.578 78.3076ZM597.522 41.9091L584.238 78.3051L586.117 78.9909L599.401 42.5949L597.522 41.9091ZM658.712 105H657.712V106H658.712V105ZM658.712 28.644V27.644H657.712V28.644H658.712ZM672.212 28.644H673.212V27.644H672.212V28.644ZM672.212 61.26H671.212V62.26H672.212V61.26ZM707.852 61.26V62.26H708.852V61.26H707.852ZM707.852 28.644V27.644H706.852V28.644H707.852ZM721.244 28.644H722.244V27.644H721.244V28.644ZM721.244 105V106H722.244V105H721.244ZM707.852 105H706.852V106H707.852V105ZM707.852 73.572H708.852V72.572H707.852V73.572ZM672.212 73.572V72.572H671.212V73.572H672.212ZM672.212 105V106H673.212V105H672.212ZM659.712 105V28.644H657.712V105H659.712ZM658.712 29.644H672.212V27.644H658.712V29.644ZM671.212 28.644V61.26H673.212V28.644H671.212ZM672.212 62.26H707.852V60.26H672.212V62.26ZM708.852 61.26V28.644H706.852V61.26H708.852ZM707.852 29.644H721.244V27.644H707.852V29.644ZM720.244 28.644V105H722.244V28.644H720.244ZM721.244 104H707.852V106H721.244V104ZM708.852 105V73.572H706.852V105H708.852ZM707.852 72.572H672.212V74.572H707.852V72.572ZM671.212 73.572V105H673.212V73.572H671.212ZM672.212 104H658.712V106H672.212V104ZM752.341 105H751.341V106H752.341V105ZM752.341 28.644V27.644H751.341V28.644H752.341ZM770.809 28.644L771.685 28.1627L771.4 27.644H770.809V28.644ZM791.977 67.2L791.1 67.6813L791.981 69.2861L792.855 67.6775L791.977 67.2ZM812.929 28.644V27.644H812.334L812.05 28.1665L812.929 28.644ZM830.857 28.644H831.857V27.644H830.857V28.644ZM830.857 105V106H831.857V105H830.857ZM817.357 105H816.357V106H817.357V105ZM817.357 45.708H818.357L816.481 45.2245L817.357 45.708ZM794.569 86.964V87.964H795.159L795.444 87.4475L794.569 86.964ZM788.845 86.964L787.971 87.451L788.257 87.964H788.845V86.964ZM765.841 45.708L766.714 45.221L764.841 41.8612V45.708H765.841ZM765.841 105V106H766.841V105H765.841ZM753.341 105V28.644H751.341V105H753.341ZM752.341 29.644H770.809V27.644H752.341V29.644ZM769.932 29.1253L791.1 67.6813L792.853 66.7187L771.685 28.1627L769.932 29.1253ZM792.855 67.6775L813.807 29.1215L812.05 28.1665L791.098 66.7225L792.855 67.6775ZM812.929 29.644H830.857V27.644H812.929V29.644ZM829.857 28.644V105H831.857V28.644H829.857ZM830.857 104H817.357V106H830.857V104ZM818.357 105V45.708H816.357V105H818.357ZM816.481 45.2245L793.693 86.4805L795.444 87.4475L818.232 46.1915L816.481 45.2245ZM794.569 85.964H788.845V87.964H794.569V85.964ZM789.718 86.477L766.714 45.221L764.967 46.195L787.971 87.451L789.718 86.477ZM764.841 45.708V105H766.841V45.708H764.841ZM765.841 104H752.341V106H765.841V104ZM853.795 105L852.862 104.642L852.341 106H853.795V105ZM883.063 28.644V27.644H882.376L882.13 28.2861L883.063 28.644ZM899.155 28.644L900.089 28.2872L899.844 27.644H899.155V28.644ZM928.315 105V106H929.768L929.249 104.643L928.315 105ZM913.735 105L912.794 105.338L913.032 106H913.735V105ZM908.659 90.852L909.601 90.5143L909.363 89.852H908.659V90.852ZM873.451 90.852V89.852H872.753L872.512 90.508L873.451 90.852ZM868.267 105V106H868.966L869.206 105.344L868.267 105ZM877.771 78.648L876.832 78.3051L876.342 79.648H877.771V78.648ZM904.231 78.648V79.648H905.657L905.172 78.3076L904.231 78.648ZM891.055 42.252L891.996 41.9116L891.059 39.3249L890.116 41.9091L891.055 42.252ZM854.729 105.358L883.997 29.0019L882.13 28.2861L852.862 104.642L854.729 105.358ZM883.063 29.644H899.155V27.644H883.063V29.644ZM898.221 29.0008L927.381 105.357L929.249 104.643L900.089 28.2872L898.221 29.0008ZM928.315 104H913.735V106H928.315V104ZM914.677 104.662L909.601 90.5143L907.718 91.1897L912.794 105.338L914.677 104.662ZM908.659 89.852H873.451V91.852H908.659V89.852ZM872.512 90.508L867.328 104.656L869.206 105.344L874.39 91.196L872.512 90.508ZM868.267 104H853.795V106H868.267V104ZM877.771 79.648H904.231V77.648H877.771V79.648ZM905.172 78.3076L891.996 41.9116L890.115 42.5924L903.291 78.9884L905.172 78.3076ZM890.116 41.9091L876.832 78.3051L878.711 78.9909L891.995 42.5949L890.116 41.9091ZM944.787 105L943.854 104.642L943.333 106H944.787V105ZM974.055 28.644V27.644H973.368L973.122 28.2861L974.055 28.644ZM990.147 28.644L991.082 28.2872L990.836 27.644H990.147V28.644ZM1019.31 105V106H1020.76L1020.24 104.643L1019.31 105ZM1004.73 105L1003.79 105.338L1004.02 106H1004.73V105ZM999.651 90.852L1000.59 90.5143L1000.36 89.852H999.651V90.852ZM964.443 90.852V89.852H963.745L963.505 90.508L964.443 90.852ZM959.259 105V106H959.958L960.198 105.344L959.259 105ZM968.763 78.648L967.824 78.3051L967.334 79.648H968.763V78.648ZM995.223 78.648V79.648H996.649L996.164 78.3076L995.223 78.648ZM982.047 42.252L982.988 41.9116L982.051 39.3249L981.108 41.9091L982.047 42.252ZM945.721 105.358L974.989 29.0019L973.122 28.2861L943.854 104.642L945.721 105.358ZM974.055 29.644H990.147V27.644H974.055V29.644ZM989.213 29.0008L1018.37 105.357L1020.24 104.643L991.082 28.2872L989.213 29.0008ZM1019.31 104H1004.73V106H1019.31V104ZM1005.67 104.662L1000.59 90.5143L998.71 91.1897L1003.79 105.338L1005.67 104.662ZM999.651 89.852H964.443V91.852H999.651V89.852ZM963.505 90.508L958.321 104.656L960.198 105.344L965.382 91.196L963.505 90.508ZM959.259 104H944.787V106H959.259V104ZM968.763 79.648H995.223V77.648H968.763V79.648ZM996.164 78.3076L982.988 41.9116L981.107 42.5924L994.283 78.9884L996.164 78.3076ZM981.108 41.9091L967.824 78.3051L969.703 78.9909L982.987 42.5949L981.108 41.9091ZM1042.3 105H1041.3V106H1042.3V105ZM1042.3 28.644V27.644H1041.3V28.644H1042.3ZM1056.77 28.644L1057.6 28.0919L1057.31 27.644H1056.77V28.644ZM1093.6 84.264L1092.76 84.8161L1094.6 87.5856V84.264H1093.6ZM1093.6 28.644V27.644H1092.6V28.644H1093.6ZM1107.1 28.644H1108.1V27.644H1107.1V28.644ZM1107.1 105V106H1108.1V105H1107.1ZM1092.95 105L1092.12 105.558L1092.42 106H1092.95V105ZM1055.8 49.704L1056.63 49.1463L1054.8 46.4225V49.704H1055.8ZM1055.8 105V106H1056.8V105H1055.8ZM1043.3 105V28.644H1041.3V105H1043.3ZM1042.3 29.644H1056.77V27.644H1042.3V29.644ZM1055.94 29.1961L1092.76 84.8161L1094.43 83.7119L1057.6 28.0919L1055.94 29.1961ZM1094.6 84.264V28.644H1092.6V84.264H1094.6ZM1093.6 29.644H1107.1V27.644H1093.6V29.644ZM1106.1 28.644V105H1108.1V28.644H1106.1ZM1107.1 104H1092.95V106H1107.1V104ZM1093.78 104.442L1056.63 49.1463L1054.97 50.2617L1092.12 105.558L1093.78 104.442ZM1054.8 49.704V105H1056.8V49.704H1054.8ZM1055.8 104H1042.3V106H1055.8V104ZM1193 104.568L1192.72 105.527L1192.73 105.53L1192.74 105.533L1193 104.568ZM1184.79 100.248L1184.12 100.99L1184.13 101.001L1184.15 101.012L1184.79 100.248ZM1179.5 92.472L1178.57 92.8434L1178.57 92.8506L1179.5 92.472ZM1177.34 80.7V79.7H1176.31L1176.34 80.7312L1177.34 80.7ZM1190.84 80.7L1191.84 80.6376L1191.78 79.7H1190.84V80.7ZM1192.24 87.072L1191.32 87.4493L1191.32 87.4493L1192.24 87.072ZM1196.02 91.716L1195.47 92.548L1195.48 92.5532L1195.48 92.5583L1196.02 91.716ZM1209.96 91.608L1210.57 92.3993L1210.57 92.3993L1209.96 91.608ZM1213.3 86.748L1212.36 86.4117L1212.36 86.4267L1212.35 86.442L1213.3 86.748ZM1214.38 28.644V27.644H1213.38V28.644H1214.38ZM1227.78 28.644H1228.78V27.644H1227.78V28.644ZM1226.37 89.772L1225.41 89.5106L1225.4 89.5176L1225.4 89.5246L1226.37 89.772ZM1222.05 98.52L1221.28 97.8843L1221.28 97.8868L1222.05 98.52ZM1214.49 104.028L1214.87 104.955L1214.88 104.95L1214.49 104.028ZM1203.48 104.864C1199.73 104.864 1196.33 104.44 1193.26 103.603L1192.74 105.533C1196 106.424 1199.59 106.864 1203.48 106.864V104.864ZM1193.28 103.609C1190.24 102.708 1187.63 101.33 1185.44 99.4837L1184.15 101.012C1186.57 103.054 1189.43 104.556 1192.72 105.527L1193.28 103.609ZM1185.46 99.5059C1183.36 97.6034 1181.67 95.1418 1180.43 92.0934L1178.57 92.8506C1179.92 96.1382 1181.76 98.8606 1184.12 100.99L1185.46 99.5059ZM1180.43 92.1006C1179.19 88.9975 1178.48 85.1954 1178.34 80.6688L1176.34 80.7312C1176.49 85.4206 1177.22 89.4665 1178.57 92.8434L1180.43 92.1006ZM1177.34 81.7H1190.84V79.7H1177.34V81.7ZM1189.84 80.7624C1189.99 83.1638 1190.48 85.3954 1191.32 87.4493L1193.17 86.6947C1192.42 84.8606 1191.98 82.8442 1191.84 80.6376L1189.84 80.7624ZM1191.32 87.4493C1192.18 89.5765 1193.57 91.2838 1195.47 92.548L1196.58 90.8839C1195.02 89.8442 1193.89 88.4555 1193.17 86.6947L1191.32 87.4493ZM1195.48 92.5583C1197.5 93.8476 1200.12 94.444 1203.26 94.444V92.444C1200.35 92.444 1198.15 91.8884 1196.56 90.8737L1195.48 92.5583ZM1203.26 94.444C1206.27 94.444 1208.75 93.8066 1210.57 92.3993L1209.34 90.8167C1208 91.8574 1206.01 92.444 1203.26 92.444V94.444ZM1210.57 92.3993C1212.32 91.0443 1213.55 89.2507 1214.26 87.054L1212.35 86.442C1211.76 88.2773 1210.76 89.7237 1209.34 90.8167L1210.57 92.3993ZM1214.25 87.0843C1215.01 84.9432 1215.38 82.5588 1215.38 79.944H1213.38C1213.38 82.3692 1213.04 84.5208 1212.36 86.4117L1214.25 87.0843ZM1215.38 79.944V28.644H1213.38V79.944H1215.38ZM1214.38 29.644H1227.78V27.644H1214.38V29.644ZM1226.78 28.644V78.216H1228.78V28.644H1226.78ZM1226.78 78.216C1226.78 82.3916 1226.32 86.1539 1225.41 89.5106L1227.34 90.0334C1228.3 86.4781 1228.78 82.5364 1228.78 78.216H1226.78ZM1225.4 89.5246C1224.57 92.7809 1223.19 95.5608 1221.28 97.8843L1222.82 99.1557C1224.94 96.5832 1226.44 93.5311 1227.34 90.0194L1225.4 89.5246ZM1221.28 97.8868C1219.45 100.125 1217.07 101.867 1214.11 103.106L1214.88 104.95C1218.11 103.597 1220.77 101.667 1222.83 99.1532L1221.28 97.8868ZM1214.12 103.101C1211.24 104.264 1207.71 104.864 1203.48 104.864V106.864C1207.89 106.864 1211.69 106.24 1214.87 104.955L1214.12 103.101ZM1249.27 105L1248.34 104.642L1247.82 106H1249.27V105ZM1278.54 28.644V27.644H1277.85L1277.61 28.2861L1278.54 28.644ZM1294.63 28.644L1295.57 28.2872L1295.32 27.644H1294.63V28.644ZM1323.79 105V106H1325.24L1324.73 104.643L1323.79 105ZM1309.21 105L1308.27 105.338L1308.51 106H1309.21V105ZM1304.14 90.852L1305.08 90.5143L1304.84 89.852H1304.14V90.852ZM1268.93 90.852V89.852H1268.23L1267.99 90.508L1268.93 90.852ZM1263.74 105V106H1264.44L1264.68 105.344L1263.74 105ZM1273.25 78.648L1272.31 78.3051L1271.82 79.648H1273.25V78.648ZM1299.71 78.648V79.648H1301.13L1300.65 78.3076L1299.71 78.648ZM1286.53 42.252L1287.47 41.9116L1286.54 39.3249L1285.59 41.9091L1286.53 42.252ZM1250.21 105.358L1279.47 29.0019L1277.61 28.2861L1248.34 104.642L1250.21 105.358ZM1278.54 29.644H1294.63V27.644H1278.54V29.644ZM1293.7 29.0008L1322.86 105.357L1324.73 104.643L1295.57 28.2872L1293.7 29.0008ZM1323.79 104H1309.21V106H1323.79V104ZM1310.15 104.662L1305.08 90.5143L1303.19 91.1897L1308.27 105.338L1310.15 104.662ZM1304.14 89.852H1268.93V91.852H1304.14V89.852ZM1267.99 90.508L1262.8 104.656L1264.68 105.344L1269.87 91.196L1267.99 90.508ZM1263.74 104H1249.27V106H1263.74V104ZM1273.25 79.648H1299.71V77.648H1273.25V79.648ZM1300.65 78.3076L1287.47 41.9116L1285.59 42.5924L1298.77 78.9884L1300.65 78.3076ZM1285.59 41.9091L1272.31 78.3051L1274.19 78.9909L1287.47 42.5949L1285.59 41.9091ZM1346.78 105H1345.78V106H1346.78V105ZM1346.78 28.644V27.644H1345.78V28.644H1346.78ZM1360.28 28.644H1361.28V27.644H1360.28V28.644ZM1360.28 92.688H1359.28V93.688H1360.28V92.688ZM1400.03 92.688H1401.03V91.688H1400.03V92.688ZM1400.03 105V106H1401.03V105H1400.03ZM1347.78 105V28.644H1345.78V105H1347.78ZM1346.78 29.644H1360.28V27.644H1346.78V29.644ZM1359.28 28.644V92.688H1361.28V28.644H1359.28ZM1360.28 93.688H1400.03V91.688H1360.28V93.688ZM1399.03 92.688V105H1401.03V92.688H1399.03ZM1400.03 104H1346.78V106H1400.03V104ZM1418.18 105L1417.24 104.642L1416.72 106H1418.18V105ZM1447.45 28.644V27.644H1446.76L1446.51 28.2861L1447.45 28.644ZM1463.54 28.644L1464.47 28.2872L1464.23 27.644H1463.54V28.644ZM1492.7 105V106H1494.15L1493.63 104.643L1492.7 105ZM1478.12 105L1477.18 105.338L1477.41 106H1478.12V105ZM1473.04 90.852L1473.98 90.5143L1473.75 89.852H1473.04V90.852ZM1437.83 90.852V89.852H1437.14L1436.9 90.508L1437.83 90.852ZM1432.65 105V106H1433.35L1433.59 105.344L1432.65 105ZM1442.15 78.648L1441.21 78.3051L1440.72 79.648H1442.15V78.648ZM1468.61 78.648V79.648H1470.04L1469.55 78.3076L1468.61 78.648ZM1455.44 42.252L1456.38 41.9116L1455.44 39.3249L1454.5 41.9091L1455.44 42.252ZM1419.11 105.358L1448.38 29.0019L1446.51 28.2861L1417.24 104.642L1419.11 105.358ZM1447.45 29.644H1463.54V27.644H1447.45V29.644ZM1462.6 29.0008L1491.76 105.357L1493.63 104.643L1464.47 28.2872L1462.6 29.0008ZM1492.7 104H1478.12V106H1492.7V104ZM1479.06 104.662L1473.98 90.5143L1472.1 91.1897L1477.18 105.338L1479.06 104.662ZM1473.04 89.852H1437.83V91.852H1473.04V89.852ZM1436.9 90.508L1431.71 104.656L1433.59 105.344L1438.77 91.196L1436.9 90.508ZM1432.65 104H1418.18V106H1432.65V104ZM1442.15 79.648H1468.61V77.648H1442.15V79.648ZM1469.55 78.3076L1456.38 41.9116L1454.5 42.5924L1467.67 78.9884L1469.55 78.3076ZM1454.5 41.9091L1441.21 78.3051L1443.09 78.9909L1456.38 42.5949L1454.5 41.9091ZM1515.69 105H1514.69V106H1515.69V105ZM1515.69 28.644V27.644H1514.69V28.644H1515.69ZM1529.19 28.644H1530.19V27.644H1529.19V28.644ZM1529.19 92.688H1528.19V93.688H1529.19V92.688ZM1568.93 92.688H1569.93V91.688H1568.93V92.688ZM1568.93 105V106H1569.93V105H1568.93ZM1516.69 105V28.644H1514.69V105H1516.69ZM1515.69 29.644H1529.19V27.644H1515.69V29.644ZM1528.19 28.644V92.688H1530.19V28.644H1528.19ZM1529.19 93.688H1568.93V91.688H1529.19V93.688ZM1567.93 92.688V105H1569.93V92.688H1567.93ZM1568.93 104H1515.69V106H1568.93V104ZM1606.25 101.652L1605.73 102.504L1605.74 102.509L1606.25 101.652ZM1595.88 89.556L1596.8 89.1605L1596.8 89.1605L1595.88 89.556ZM1592.53 28.644V27.644H1591.53V28.644H1592.53ZM1606.03 28.644H1607.03V27.644H1606.03V28.644ZM1607.65 82.428L1606.7 82.732L1606.71 82.7443L1606.71 82.7565L1607.65 82.428ZM1613.38 90.42L1612.78 91.2175L1612.79 91.2251L1613.38 90.42ZM1635.19 90.42L1635.82 91.2009L1635.82 91.1988L1635.19 90.42ZM1640.59 82.32L1639.64 82.01L1639.64 82.0194L1639.64 82.0288L1640.59 82.32ZM1642.21 28.644V27.644H1641.21V28.644H1642.21ZM1655.82 28.644H1656.82V27.644H1655.82V28.644ZM1652.47 89.448L1651.56 89.0525L1651.56 89.0525L1652.47 89.448ZM1642.21 101.544L1642.74 102.392L1642.21 101.544ZM1624.18 104.864C1617.03 104.864 1611.25 103.483 1606.77 100.795L1605.74 102.509C1610.62 105.437 1616.78 106.864 1624.18 106.864V104.864ZM1606.78 100.8C1602.28 98.0313 1598.95 94.161 1596.8 89.1605L1594.96 89.9515C1597.28 95.319 1600.87 99.5127 1605.73 102.504L1606.78 100.8ZM1596.8 89.1605C1594.63 84.1285 1593.53 78.1489 1593.53 71.196H1591.53C1591.53 78.3551 1592.67 84.6155 1594.96 89.9515L1596.8 89.1605ZM1593.53 71.196V28.644H1591.53V71.196H1593.53ZM1592.53 29.644H1606.03V27.644H1592.53V29.644ZM1605.03 28.644V71.52H1607.03V28.644H1605.03ZM1605.03 71.52C1605.03 75.5015 1605.59 79.2409 1606.7 82.732L1608.61 82.124C1607.56 78.8471 1607.03 75.3145 1607.03 71.52H1605.03ZM1606.71 82.7565C1607.92 86.2453 1609.95 89.0761 1612.78 91.2174L1613.98 89.6226C1611.48 87.7319 1609.69 85.2347 1608.6 82.0995L1606.71 82.7565ZM1612.79 91.2251C1615.75 93.4059 1619.65 94.444 1624.39 94.444V92.444C1619.93 92.444 1616.48 91.4661 1613.97 89.6149L1612.79 91.2251ZM1624.39 94.444C1629.2 94.444 1633.06 93.4103 1635.82 91.2009L1634.57 89.6391C1632.29 91.4617 1628.95 92.444 1624.39 92.444V94.444ZM1635.82 91.1988C1638.58 88.9797 1640.49 86.1069 1641.55 82.6112L1639.64 82.0288C1638.69 85.1571 1637 87.6843 1634.57 89.6412L1635.82 91.1988ZM1641.55 82.63C1642.66 79.207 1643.21 75.5012 1643.21 71.52H1641.21C1641.21 75.3148 1640.69 78.809 1639.64 82.01L1641.55 82.63ZM1643.21 71.52V28.644H1641.21V71.52H1643.21ZM1642.21 29.644H1655.82V27.644H1642.21V29.644ZM1654.82 28.644V71.196H1656.82V28.644H1654.82ZM1654.82 71.196C1654.82 78.0754 1653.72 84.0193 1651.56 89.0525L1653.39 89.8435C1655.69 84.5087 1656.82 78.2846 1656.82 71.196H1654.82ZM1651.56 89.0525C1649.4 94.0574 1646.11 97.9282 1641.68 100.696L1642.74 102.392C1647.53 99.3998 1651.08 95.2066 1653.39 89.8435L1651.56 89.0525ZM1641.68 100.696C1637.28 103.447 1631.47 104.864 1624.18 104.864V106.864C1631.72 106.864 1637.93 105.401 1642.74 102.392L1641.68 100.696ZM1686.39 105H1685.39V106H1686.39V105ZM1686.39 28.644V27.644H1685.39V28.644H1686.39ZM1734.88 33.288L1734.39 34.1611L1734.4 34.1659L1734.88 33.288ZM1747.52 46.464L1746.62 46.9112L1746.62 46.9179L1746.63 46.9246L1747.52 46.464ZM1747.62 87.288L1746.73 86.8363L1746.73 86.8453L1747.62 87.288ZM1735.1 100.464L1735.57 101.342L1735.58 101.337L1735.1 100.464ZM1699.89 92.688H1698.89V93.688H1699.89V92.688ZM1728.08 89.448L1728.61 90.296L1728.61 90.2931L1728.08 89.448ZM1735.74 80.376L1734.82 79.9841L1734.82 79.9926L1735.74 80.376ZM1735.85 53.592L1734.93 53.9693L1734.93 53.9693L1735.85 53.592ZM1728.18 44.412L1727.63 45.244L1727.64 45.2507L1727.65 45.2571L1728.18 44.412ZM1699.89 40.956V39.956H1698.89V40.956H1699.89ZM1687.39 105V28.644H1685.39V105H1687.39ZM1686.39 29.644H1714.58V27.644H1686.39V29.644ZM1714.58 29.644C1722.44 29.644 1729.03 31.1672 1734.39 34.1611L1735.37 32.4149C1729.64 29.2168 1722.69 27.644 1714.58 27.644V29.644ZM1734.4 34.1659C1739.76 37.0901 1743.83 41.33 1746.62 46.9112L1748.41 46.0168C1745.44 40.078 1741.09 35.5339 1735.36 32.4101L1734.4 34.1659ZM1746.63 46.9246C1749.49 52.4394 1750.94 59.1135 1750.94 66.984H1752.94C1752.94 58.8705 1751.44 51.8645 1748.4 46.0033L1746.63 46.9246ZM1750.94 66.984C1750.94 74.7107 1749.53 81.317 1746.73 86.8363L1748.52 87.7397C1751.48 81.883 1752.94 74.9533 1752.94 66.984H1750.94ZM1746.73 86.8453C1744.01 92.3515 1739.98 96.5935 1734.61 99.5909L1735.58 101.337C1741.3 98.1425 1745.62 93.6005 1748.52 87.7307L1746.73 86.8453ZM1734.62 99.5861C1729.25 102.511 1722.63 104 1714.68 104V106C1722.87 106 1729.85 104.465 1735.57 101.342L1734.62 99.5861ZM1714.68 104H1686.39V106H1714.68V104ZM1699.89 93.688H1714.36V91.688H1699.89V93.688ZM1714.36 93.688C1720.16 93.688 1724.94 92.5872 1728.61 90.296L1727.55 88.6C1724.3 90.6288 1719.93 91.688 1714.36 91.688V93.688ZM1728.61 90.2931C1732.31 87.9522 1735 84.7678 1736.67 80.7594L1734.82 79.9926C1733.32 83.6162 1730.9 86.4798 1727.54 88.6029L1728.61 90.2931ZM1736.66 80.7679C1738.38 76.7329 1739.23 72.0951 1739.23 66.876H1737.23C1737.23 71.8809 1736.42 76.2431 1734.82 79.9841L1736.66 80.7679ZM1739.23 66.876C1739.23 61.8019 1738.42 57.2423 1736.78 53.2147L1734.93 53.9693C1736.45 57.7177 1737.23 62.0141 1737.23 66.876H1739.23ZM1736.78 53.2147C1735.12 49.135 1732.42 45.9109 1728.72 43.5669L1727.65 45.2571C1731 47.377 1733.42 50.273 1734.93 53.9693L1736.78 53.2147ZM1728.74 43.5799C1725.07 41.1328 1720.28 39.956 1714.47 39.956V41.956C1720.03 41.956 1724.39 43.0832 1727.63 45.244L1728.74 43.5799ZM1714.47 39.956H1699.89V41.956H1714.47V39.956ZM1698.89 40.956V92.688H1700.89V40.956H1698.89ZM1778.86 105H1777.86V106H1778.86V105ZM1778.86 28.644V27.644H1777.86V28.644H1778.86ZM1827.35 33.288L1826.86 34.1611L1826.87 34.1659L1827.35 33.288ZM1839.98 46.464L1839.09 46.9112L1839.09 46.9179L1839.1 46.9246L1839.98 46.464ZM1840.09 87.288L1839.2 86.8363L1839.2 86.8453L1840.09 87.288ZM1827.56 100.464L1828.04 101.342L1828.05 101.337L1827.56 100.464ZM1792.36 92.688H1791.36V93.688H1792.36V92.688ZM1820.54 89.448L1821.07 90.296L1821.08 90.2931L1820.54 89.448ZM1828.21 80.376L1827.29 79.9841L1827.29 79.9926L1828.21 80.376ZM1828.32 53.592L1827.39 53.9693L1827.39 53.9693L1828.32 53.592ZM1820.65 44.412L1820.1 45.244L1820.11 45.2507L1820.12 45.2571L1820.65 44.412ZM1792.36 40.956V39.956H1791.36V40.956H1792.36ZM1779.86 105V28.644H1777.86V105H1779.86ZM1778.86 29.644H1807.04V27.644H1778.86V29.644ZM1807.04 29.644C1814.91 29.644 1821.5 31.1672 1826.86 34.1611L1827.84 32.4149C1822.11 29.2168 1815.16 27.644 1807.04 27.644V29.644ZM1826.87 34.1659C1832.23 37.0901 1836.3 41.33 1839.09 46.9112L1840.88 46.0168C1837.91 40.078 1833.55 35.5339 1827.83 32.4101L1826.87 34.1659ZM1839.1 46.9246C1841.96 52.4394 1843.41 59.1135 1843.41 66.984H1845.41C1845.41 58.8705 1843.91 51.8645 1840.87 46.0033L1839.1 46.9246ZM1843.41 66.984C1843.41 74.7107 1841.99 81.317 1839.2 86.8363L1840.98 87.7397C1843.95 81.883 1845.41 74.9533 1845.41 66.984H1843.41ZM1839.2 86.8453C1836.48 92.3515 1832.44 96.5935 1827.08 99.5909L1828.05 101.337C1833.77 98.1425 1838.09 93.6005 1840.99 87.7307L1839.2 86.8453ZM1827.09 99.5861C1821.72 102.511 1815.09 104 1807.15 104V106C1815.34 106 1822.32 104.465 1828.04 101.342L1827.09 99.5861ZM1807.15 104H1778.86V106H1807.15V104ZM1792.36 93.688H1806.83V91.688H1792.36V93.688ZM1806.83 93.688C1812.63 93.688 1817.41 92.5872 1821.07 90.296L1820.01 88.6C1816.77 90.6288 1812.4 91.688 1806.83 91.688V93.688ZM1821.08 90.2931C1824.78 87.9522 1827.47 84.7678 1829.14 80.7594L1827.29 79.9926C1825.78 83.6162 1823.37 86.4798 1820.01 88.6029L1821.08 90.2931ZM1829.13 80.7679C1830.85 76.7329 1831.7 72.0951 1831.7 66.876H1829.7C1829.7 71.8809 1828.89 76.2431 1827.29 79.9841L1829.13 80.7679ZM1831.7 66.876C1831.7 61.8019 1830.89 57.2423 1829.25 53.2147L1827.39 53.9693C1828.92 57.7177 1829.7 62.0141 1829.7 66.876H1831.7ZM1829.25 53.2147C1827.58 49.135 1824.89 45.9109 1821.19 43.5669L1820.12 45.2571C1823.47 47.377 1825.89 50.273 1827.39 53.9693L1829.25 53.2147ZM1821.21 43.5799C1817.54 41.1328 1812.75 39.956 1806.94 39.956V41.956C1812.5 41.956 1816.86 43.0832 1820.1 45.244L1821.21 43.5799ZM1806.94 39.956H1792.36V41.956H1806.94V39.956ZM1791.36 40.956V92.688H1793.36V40.956H1791.36ZM1871.32 105H1870.32V106H1871.32V105ZM1871.32 28.644V27.644H1870.32V28.644H1871.32ZM1884.82 28.644H1885.82V27.644H1884.82V28.644ZM1884.82 105V106H1885.82V105H1884.82ZM1872.32 105V28.644H1870.32V105H1872.32ZM1871.32 29.644H1884.82V27.644H1871.32V29.644ZM1883.82 28.644V105H1885.82V28.644H1883.82ZM1884.82 104H1871.32V106H1884.82V104ZM1915.91 105H1914.91V106H1915.91V105ZM1915.91 28.644V27.644H1914.91V28.644H1915.91ZM1930.38 28.644L1931.22 28.0919L1930.92 27.644H1930.38V28.644ZM1967.21 84.264L1966.38 84.8161L1968.21 87.5856V84.264H1967.21ZM1967.21 28.644V27.644H1966.21V28.644H1967.21ZM1980.71 28.644H1981.71V27.644H1980.71V28.644ZM1980.71 105V106H1981.71V105H1980.71ZM1966.56 105L1965.73 105.558L1966.03 106H1966.56V105ZM1929.41 49.704L1930.24 49.1463L1928.41 46.4225V49.704H1929.41ZM1929.41 105V106H1930.41V105H1929.41ZM1916.91 105V28.644H1914.91V105H1916.91ZM1915.91 29.644H1930.38V27.644H1915.91V29.644ZM1929.55 29.1961L1966.38 84.8161L1968.04 83.7119L1931.22 28.0919L1929.55 29.1961ZM1968.21 84.264V28.644H1966.21V84.264H1968.21ZM1967.21 29.644H1980.71V27.644H1967.21V29.644ZM1979.71 28.644V105H1981.71V28.644H1979.71ZM1980.71 104H1966.56V106H1980.71V104ZM1967.39 104.442L1930.24 49.1463L1928.58 50.2617L1965.73 105.558L1967.39 104.442ZM1928.41 49.704V105H1930.41V49.704H1928.41ZM1929.41 104H1915.91V106H1929.41V104ZM2055.81 105H2054.81V106H2055.81V105ZM2055.81 28.644V27.644H2054.81V28.644H2055.81ZM2109.17 28.644H2110.17V27.644H2109.17V28.644ZM2109.17 40.956V41.956H2110.17V40.956H2109.17ZM2069.31 40.956V39.956H2068.31V40.956H2069.31ZM2069.31 63.744H2068.31V64.744H2069.31V63.744ZM2103.44 63.744H2104.44V62.744H2103.44V63.744ZM2103.44 76.056V77.056H2104.44V76.056H2103.44ZM2069.31 76.056V75.056H2068.31V76.056H2069.31ZM2069.31 105V106H2070.31V105H2069.31ZM2056.81 105V28.644H2054.81V105H2056.81ZM2055.81 29.644H2109.17V27.644H2055.81V29.644ZM2108.17 28.644V40.956H2110.17V28.644H2108.17ZM2109.17 39.956H2069.31V41.956H2109.17V39.956ZM2068.31 40.956V63.744H2070.31V40.956H2068.31ZM2069.31 64.744H2103.44V62.744H2069.31V64.744ZM2102.44 63.744V76.056H2104.44V63.744H2102.44ZM2103.44 75.056H2069.31V77.056H2103.44V75.056ZM2068.31 76.056V105H2070.31V76.056H2068.31ZM2069.31 104H2055.81V106H2069.31V104ZM2121.3 105L2120.37 104.642L2119.85 106H2121.3V105ZM2150.57 28.644V27.644H2149.88L2149.64 28.2861L2150.57 28.644ZM2166.66 28.644L2167.6 28.2872L2167.35 27.644H2166.66V28.644ZM2195.82 105V106H2197.28L2196.76 104.643L2195.82 105ZM2181.24 105L2180.3 105.338L2180.54 106H2181.24V105ZM2176.17 90.852L2177.11 90.5143L2176.87 89.852H2176.17V90.852ZM2140.96 90.852V89.852H2140.26L2140.02 90.508L2140.96 90.852ZM2135.78 105V106H2136.47L2136.71 105.344L2135.78 105ZM2145.28 78.648L2144.34 78.3051L2143.85 79.648H2145.28V78.648ZM2171.74 78.648V79.648H2173.16L2172.68 78.3076L2171.74 78.648ZM2158.56 42.252L2159.5 41.9116L2158.57 39.3249L2157.62 41.9091L2158.56 42.252ZM2122.24 105.358L2151.5 29.0019L2149.64 28.2861L2120.37 104.642L2122.24 105.358ZM2150.57 29.644H2166.66V27.644H2150.57V29.644ZM2165.73 29.0008L2194.89 105.357L2196.76 104.643L2167.6 28.2872L2165.73 29.0008ZM2195.82 104H2181.24V106H2195.82V104ZM2182.18 104.662L2177.11 90.5143L2175.23 91.1897L2180.3 105.338L2182.18 104.662ZM2176.17 89.852H2140.96V91.852H2176.17V89.852ZM2140.02 90.508L2134.84 104.656L2136.71 105.344L2141.9 91.196L2140.02 90.508ZM2135.78 104H2121.3V106H2135.78V104ZM2145.28 79.648H2171.74V77.648H2145.28V79.648ZM2172.68 78.3076L2159.5 41.9116L2157.62 42.5924L2170.8 78.9884L2172.68 78.3076ZM2157.62 41.9091L2144.34 78.3051L2146.22 78.9909L2159.5 42.5949L2157.62 41.9091ZM2275.35 117.96L2274.55 118.561L2275.16 119.365L2275.96 118.756L2275.35 117.96ZM2264.23 103.164L2265.03 102.563L2264.57 101.951L2263.86 102.236L2264.23 103.164ZM2257.21 105.108L2257.04 104.122L2257.03 104.125L2257.01 104.127L2257.21 105.108ZM2229.34 100.896L2229.86 100.038L2229.86 100.038L2229.34 100.896ZM2216.6 87.072L2215.7 87.5104L2215.71 87.5192L2216.6 87.072ZM2216.6 46.572L2215.71 46.1248L2215.7 46.1336L2216.6 46.572ZM2229.34 32.748L2229.86 33.6065L2229.86 33.6045L2229.34 32.748ZM2269.63 32.64L2269.11 33.4955L2269.12 33.4995L2269.12 33.5034L2269.63 32.64ZM2282.26 46.356L2281.37 46.7944L2281.37 46.801L2281.37 46.8076L2282.26 46.356ZM2283.67 83.4L2282.74 83.0192L2282.74 83.0262L2283.67 83.4ZM2275.14 95.82L2274.46 95.0852L2273.8 95.6947L2274.33 96.4161L2275.14 95.82ZM2285.72 110.076L2286.33 110.872L2287.11 110.274L2286.52 109.48L2285.72 110.076ZM2262.82 89.556L2262.24 88.7422L2262.24 88.748L2262.82 89.556ZM2270.49 79.728L2269.57 79.3538L2269.56 79.3623L2270.49 79.728ZM2270.49 53.7L2269.57 54.0799L2270.49 53.7ZM2262.82 43.98L2262.23 44.782L2262.24 44.7891L2262.25 44.796L2262.82 43.98ZM2236.15 43.98L2235.57 43.1662L2235.56 43.172L2236.15 43.98ZM2228.48 53.916L2229.41 54.2959L2229.41 54.2902L2228.48 53.916ZM2228.37 79.836L2227.44 80.2017L2227.44 80.2088L2227.45 80.2159L2228.37 79.836ZM2236.04 89.664L2235.45 90.4721L2235.46 90.48L2236.04 89.664ZM2276.15 117.359L2265.03 102.563L2263.43 103.765L2274.55 118.561L2276.15 117.359ZM2263.86 102.236C2261.77 103.071 2259.5 103.701 2257.04 104.122L2257.38 106.094C2259.96 105.651 2262.37 104.985 2264.6 104.092L2263.86 102.236ZM2257.01 104.127C2254.56 104.618 2252.07 104.864 2249.54 104.864V106.864C2252.2 106.864 2254.82 106.606 2257.41 106.089L2257.01 104.127ZM2249.54 104.864C2241.76 104.864 2235.22 103.238 2229.86 100.038L2228.83 101.754C2234.56 105.178 2241.48 106.864 2249.54 106.864V104.864ZM2229.86 100.038C2224.48 96.8257 2220.36 92.3621 2217.5 86.6248L2215.71 87.5192C2218.74 93.5899 2223.12 98.3423 2228.83 101.754L2229.86 100.038ZM2217.5 86.6336C2214.7 80.8853 2213.28 74.307 2213.28 66.876H2211.28C2211.28 74.565 2212.75 81.4507 2215.7 87.5104L2217.5 86.6336ZM2213.28 66.876C2213.28 59.3714 2214.7 52.7574 2217.5 47.0104L2215.7 46.1336C2212.75 52.1946 2211.28 59.1166 2211.28 66.876H2213.28ZM2217.5 47.0192C2220.36 41.2819 2224.48 36.8183 2229.86 33.6065L2228.83 31.8895C2223.12 35.3017 2218.74 40.0541 2215.71 46.1248L2217.5 47.0192ZM2229.86 33.6045C2235.29 30.3314 2241.84 28.672 2249.54 28.672V26.672C2241.55 26.672 2234.63 28.3966 2228.83 31.8915L2229.86 33.6045ZM2249.54 28.672C2257.32 28.672 2263.83 30.2982 2269.11 33.4955L2270.15 31.7845C2264.49 28.3578 2257.6 26.672 2249.54 26.672V28.672ZM2269.12 33.5034C2274.49 36.6413 2278.57 41.0635 2281.37 46.7944L2283.16 45.9176C2280.2 39.8404 2275.85 35.1187 2270.13 31.7766L2269.12 33.5034ZM2281.37 46.8076C2284.24 52.4767 2285.69 59.085 2285.69 66.66H2287.69C2287.69 58.827 2286.19 51.8993 2283.16 45.9044L2281.37 46.8076ZM2285.69 66.66C2285.69 72.8169 2284.7 78.264 2282.74 83.0192L2284.59 83.7807C2286.67 78.744 2287.69 73.0311 2287.69 66.66H2285.69ZM2282.74 83.0262C2280.85 87.7159 2278.09 91.7317 2274.46 95.0852L2275.82 96.5548C2279.67 92.9963 2282.6 88.7321 2284.6 83.7738L2282.74 83.0262ZM2274.33 96.4161L2284.92 110.672L2286.52 109.48L2275.94 95.2239L2274.33 96.4161ZM2285.12 109.28L2274.75 117.164L2275.96 118.756L2286.33 110.872L2285.12 109.28ZM2249.32 94.336C2255.02 94.336 2259.74 93.0412 2263.41 90.364L2262.24 88.748C2259 91.1108 2254.72 92.336 2249.32 92.336V94.336ZM2263.41 90.3697C2267.09 87.7374 2269.77 84.3058 2271.42 80.0937L2269.56 79.3623C2268.05 83.2142 2265.61 86.3346 2262.24 88.7423L2263.41 90.3697ZM2271.42 80.1022C2273.13 75.8744 2273.98 71.3909 2273.98 66.66H2271.98C2271.98 71.1451 2271.17 75.3736 2269.57 79.3538L2271.42 80.1022ZM2273.98 66.66C2273.98 61.9292 2273.13 57.4794 2271.42 53.3201L2269.57 54.0799C2271.17 57.9846 2271.98 62.1748 2271.98 66.66H2273.98ZM2271.42 53.3201C2269.69 49.1182 2267.02 45.7248 2263.4 43.164L2262.25 44.796C2265.54 47.1311 2267.98 50.2178 2269.57 54.0799L2271.42 53.3201ZM2263.42 43.178C2259.82 40.4958 2255.16 39.2 2249.54 39.2V41.2C2254.86 41.2 2259.06 42.4242 2262.23 44.782L2263.42 43.178ZM2249.54 39.2C2243.98 39.2 2239.3 40.4982 2235.57 43.1663L2236.73 44.7937C2240.05 42.4218 2244.3 41.2 2249.54 41.2V39.2ZM2235.56 43.172C2231.95 45.8061 2229.28 49.2708 2227.55 53.5418L2229.41 54.2902C2231 50.3532 2233.44 47.1939 2236.74 44.788L2235.56 43.172ZM2227.56 53.5361C2225.85 57.6973 2225 62.1834 2225 66.984H2227C2227 62.4246 2227.8 58.1987 2229.41 54.2959L2227.56 53.5361ZM2225 66.984C2225 71.6392 2225.81 76.0477 2227.44 80.2017L2229.3 79.4703C2227.77 75.5603 2227 71.4008 2227 66.984H2225ZM2227.45 80.2159C2229.17 84.4155 2231.84 87.8409 2235.45 90.472L2236.63 88.856C2233.33 86.4471 2230.89 83.3205 2229.3 79.4561L2227.45 80.2159ZM2235.46 90.48C2239.13 93.0769 2243.77 94.336 2249.32 94.336V92.336C2244.07 92.336 2239.86 91.1471 2236.62 88.848L2235.46 90.48ZM2313.5 105H2312.5V106H2313.5V105ZM2313.5 28.644V27.644H2312.5V28.644H2313.5ZM2327 28.644H2328V27.644H2327V28.644ZM2327 105V106H2328V105H2327ZM2314.5 105V28.644H2312.5V105H2314.5ZM2313.5 29.644H2327V27.644H2313.5V29.644ZM2326 28.644V105H2328V28.644H2326ZM2327 104H2313.5V106H2327V104ZM2358.08 105H2357.08V106H2358.08V105ZM2358.08 28.644V27.644H2357.08V28.644H2358.08ZM2371.58 28.644H2372.58V27.644H2371.58V28.644ZM2371.58 105V106H2372.58V105H2371.58ZM2359.08 105V28.644H2357.08V105H2359.08ZM2358.08 29.644H2371.58V27.644H2358.08V29.644ZM2370.58 28.644V105H2372.58V28.644H2370.58ZM2371.58 104H2358.08V106H2371.58V104ZM2402.67 105H2401.67V106H2402.67V105ZM2402.67 28.644V27.644H2401.67V28.644H2402.67ZM2416.17 28.644H2417.17V27.644H2416.17V28.644ZM2416.17 61.26H2415.17V62.26H2416.17V61.26ZM2451.81 61.26V62.26H2452.81V61.26H2451.81ZM2451.81 28.644V27.644H2450.81V28.644H2451.81ZM2465.2 28.644H2466.2V27.644H2465.2V28.644ZM2465.2 105V106H2466.2V105H2465.2ZM2451.81 105H2450.81V106H2451.81V105ZM2451.81 73.572H2452.81V72.572H2451.81V73.572ZM2416.17 73.572V72.572H2415.17V73.572H2416.17ZM2416.17 105V106H2417.17V105H2416.17ZM2403.67 105V28.644H2401.67V105H2403.67ZM2402.67 29.644H2416.17V27.644H2402.67V29.644ZM2415.17 28.644V61.26H2417.17V28.644H2415.17ZM2416.17 62.26H2451.81V60.26H2416.17V62.26ZM2452.81 61.26V28.644H2450.81V61.26H2452.81ZM2451.81 29.644H2465.2V27.644H2451.81V29.644ZM2464.2 28.644V105H2466.2V28.644H2464.2ZM2465.2 104H2451.81V106H2465.2V104ZM2452.81 105V73.572H2450.81V105H2452.81ZM2451.81 72.572H2416.17V74.572H2451.81V72.572ZM2415.17 73.572V105H2417.17V73.572H2415.17ZM2416.17 104H2402.67V106H2416.17V104Z" fill="#004CEE" mask="url(#path-2-outside-1_114_93)"/>
</svg>
